<?xml version="1.0" encoding="UTF-8"?>
<svg width="1074px" height="177px" viewBox="0 0 1074 177" version="1.1" xmlns="http://www.w3.org/2000/svg" xmlns:xlink="http://www.w3.org/1999/xlink">
    <title>Group 6</title>
    <g id="Page-1" stroke="none" stroke-width="1" fill="none" fill-rule="evenodd">
        <g id="Group-6" fill-rule="nonzero">
            <g id="icon" transform="translate(-109.000000, -40.000000)">
                <path d="M174.577462,146.63285 C174.577462,146.63285 92.7714662,127.713749 66.4870427,92.1884193 L88.8345384,42.7198068 C88.8345384,42.7198068 112.745276,87.7911657 151.650695,95.9492633 L174.577462,146.63285 Z" id="Path" fill="#0D1D31"></path>
                <path d="M29.2946804,174.837159 C29.2946804,174.837159 86.5775432,218.188527 216.418869,239 L184.132412,167.86113 C184.132412,167.86113 135.991548,169.245483 56.142452,115.458937 L29.2946804,174.837159 Z" id="Path" fill="#0D1D31"></path>
                <path d="M78.6660304,174.070512 C102.893368,172.049981 125.145326,167.490507 144.72478,160.448667 C155.647712,156.524217 165.698948,151.907014 174.936601,146.481599 L151.928475,95.9231696 C148.733419,97.5969778 145.422137,99.1553271 142.051579,100.598102 C124.564195,108.100739 104.810634,112.775671 83.3721427,114.507556 C76.6326542,115.08485 70.1255017,115.258039 64.0251407,115.258039 C61.294524,115.258039 58.6219041,115.200309 56.0655103,115.14258 L29.1075563,174.588923 C42.3541973,175.397135 59.6677068,175.628053 78.6660304,174.070512 Z" id="Path" fill="#DE3423"></path>
                <path d="M82.0938877,91.4791551 C100.917988,89.8630763 118.114807,85.7652077 133.162604,79.3011237 C136.30071,77.9159628 139.37954,76.4730725 142.342144,74.9147232 L108.238491,4.44802542e-14 L66.4653084,92.1716778 C71.4617536,92.1139483 76.690651,91.8831459 82.0938877,91.4791551 Z" id="Path" fill="#DE3423"></path>
                <path d="M152.335267,182.265787 C130.781131,189.941498 106.437451,194.905077 80.0605115,197.098797 C69.3121513,197.964739 59.0866924,198.309961 49.7908101,198.309961 C37.7643111,198.309961 27.2484031,197.733821 18.9403267,197.098797 L-8.8858331e-14,238.826812 L217,238.826812 L184.581045,167.605966 C174.646035,173.2623 163.839329,178.16815 152.335267,182.265787 Z" id="Path" fill="#DE3423"></path>
            </g>
        </g>
    </g>
</svg>