<?xml version="1.0" encoding="UTF-8"?>
<svg width="3391px" height="225px" viewBox="0 0 3391 225" version="1.1" xmlns="http://www.w3.org/2000/svg" xmlns:xlink="http://www.w3.org/1999/xlink">
    <title>cta-background</title>
    <g id="Page-1" stroke="none" stroke-width="1" fill="none" fill-rule="evenodd">
        <g id="Rectangle-2-Copy">
            <g id="Group-4" opacity="0.156000182" transform="translate(1007.000000, -181.000000)" stroke="#FFFFFF">
                <polygon id="Triangle-Copy-92" points="44 176 88 264 0 264"></polygon>
                <polygon id="Triangle-Copy-91" points="88 176 132 264 44 264"></polygon>
                <polygon id="Triangle-Copy-89" points="176 176 220 264 132 264"></polygon>
                <polygon id="Triangle-Copy-88" points="220 176 264 264 176 264"></polygon>
                <polygon id="Triangle-Copy-86" points="308 176 352 264 264 264"></polygon>
                <polygon id="Triangle-Copy-82" points="484 176 528 264 440 264"></polygon>
                <polygon id="Triangle-Copy-79" points="616 176 660 264 572 264"></polygon>
                <polygon id="Triangle-Copy-78" points="660 176 704 264 616 264"></polygon>
                <polygon id="Triangle-Copy-74" points="836 176 880 264 792 264"></polygon>
                <polygon id="Triangle-Copy-72" points="924 176 968 264 880 264"></polygon>
                <polygon id="Triangle-Copy-71" points="968 176 1012 264 924 264"></polygon>
                <polygon id="Triangle-Copy-70" points="1012 176 1056 264 968 264"></polygon>
                <polygon id="Triangle-Copy-67" points="1144 176 1188 264 1100 264"></polygon>
                <polygon id="Triangle-Copy-66" points="1188 176 1232 264 1144 264"></polygon>
                <polygon id="Triangle-Copy-63" points="1320 176 1364 264 1276 264"></polygon>
                <polygon id="Triangle-Copy-123" points="44 264 88 352 0 352"></polygon>
                <polygon id="Triangle-Copy-122" points="88 264 132 352 44 352"></polygon>
                <polygon id="Triangle-Copy-117" points="308 264 352 352 264 352"></polygon>
                <polygon id="Triangle-Copy-116" points="352 264 396 352 308 352"></polygon>
                <polygon id="Triangle-Copy-113" points="484 264 528 352 440 352"></polygon>
                <polygon id="Triangle-Copy-111" points="572 264 616 352 528 352"></polygon>
                <polygon id="Triangle-Copy-109" points="660 264 704 352 616 352"></polygon>
                <polygon id="Triangle-Copy-107" points="748 264 792 352 704 352"></polygon>
                <polygon id="Triangle-Copy-106" points="792 264 836 352 748 352"></polygon>
                <polygon id="Triangle-Copy-104" points="880 264 924 352 836 352"></polygon>
                <polygon id="Triangle-Copy-102" points="968 264 1012 352 924 352"></polygon>
                <polygon id="Triangle-Copy-100" points="1056 264 1100 352 1012 352"></polygon>
                <polygon id="Triangle-Copy-99" points="1100 264 1144 352 1056 352"></polygon>
                <polygon id="Triangle-Copy-96" points="1232 264 1276 352 1188 352"></polygon>
                <polygon id="Triangle-Copy-95" points="1276 264 1320 352 1232 352"></polygon>
                <polygon id="Triangle-Copy-94" points="1320 264 1364 352 1276 352"></polygon>
                <polygon id="Triangle-Copy-93" points="1364 264 1408 352 1320 352"></polygon>
                <polygon id="Triangle-Copy-154" points="44 352 88 440 0 440"></polygon>
                <polygon id="Triangle-Copy-153" points="88 352 132 440 44 440"></polygon>
                <polygon id="Triangle-Copy-148" points="308 352 352 440 264 440"></polygon>
                <polygon id="Triangle-Copy-147" points="352 352 396 440 308 440"></polygon>
                <polygon id="Triangle-Copy-146" points="396 352 440 440 352 440"></polygon>
                <polygon id="Triangle-Copy-145" points="440 352 484 440 396 440"></polygon>
                <polygon id="Triangle-Copy-144" points="484 352 528 440 440 440"></polygon>
                <polygon id="Triangle-Copy-142" points="572 352 616 440 528 440"></polygon>
                <polygon id="Triangle-Copy-139" points="704 352 748 440 660 440"></polygon>
                <polygon id="Triangle-Copy-138" points="748 352 792 440 704 440"></polygon>
                <polygon id="Triangle-Copy-137" points="792 352 836 440 748 440"></polygon>
                <polygon id="Triangle-Copy-132" points="1012 352 1056 440 968 440"></polygon>
                <polygon id="Triangle-Copy-131" points="1056 352 1100 440 1012 440"></polygon>
                <polygon id="Triangle-Copy-130" points="1100 352 1144 440 1056 440"></polygon>
                <polygon id="Triangle-Copy-128" points="1188 352 1232 440 1144 440"></polygon>
                <polygon id="Triangle-Copy-127" points="1232 352 1276 440 1188 440"></polygon>
                <polygon id="Triangle-Copy-126" points="1276 352 1320 440 1232 440"></polygon>
                <polygon id="Triangle-Copy-125" points="1320 352 1364 440 1276 440"></polygon>
                <polygon id="Triangle-Copy-124" points="1364 352 1408 440 1320 440"></polygon>
            </g>
            <g id="Group-4-Copy-4" opacity="0.156000182" transform="translate(2415.000000, -181.000000)" stroke="#FFFFFF">
                <polygon id="Triangle-Copy-92" points="44 176 88 264 0 264"></polygon>
                <polygon id="Triangle-Copy-91" points="88 176 132 264 44 264"></polygon>
                <polygon id="Triangle-Copy-89" points="176 176 220 264 132 264"></polygon>
                <polygon id="Triangle-Copy-88" points="220 176 264 264 176 264"></polygon>
                <polygon id="Triangle-Copy-86" points="308 176 352 264 264 264"></polygon>
                <polygon id="Triangle-Copy-82" points="484 176 528 264 440 264"></polygon>
                <polygon id="Triangle-Copy-79" points="616 176 660 264 572 264"></polygon>
                <polygon id="Triangle-Copy-78" points="660 176 704 264 616 264"></polygon>
                <polygon id="Triangle-Copy-74" points="836 176 880 264 792 264"></polygon>
                <polygon id="Triangle-Copy-72" points="924 176 968 264 880 264"></polygon>
                <polygon id="Triangle-Copy-71" points="968 176 1012 264 924 264"></polygon>
                <polygon id="Triangle-Copy-70" points="1012 176 1056 264 968 264"></polygon>
                <polygon id="Triangle-Copy-123" points="44 264 88 352 0 352"></polygon>
                <polygon id="Triangle-Copy-122" points="88 264 132 352 44 352"></polygon>
                <polygon id="Triangle-Copy-117" points="308 264 352 352 264 352"></polygon>
                <polygon id="Triangle-Copy-116" points="352 264 396 352 308 352"></polygon>
                <polygon id="Triangle-Copy-113" points="484 264 528 352 440 352"></polygon>
                <polygon id="Triangle-Copy-111" points="572 264 616 352 528 352"></polygon>
                <polygon id="Triangle-Copy-109" points="660 264 704 352 616 352"></polygon>
                <polygon id="Triangle-Copy-107" points="748 264 792 352 704 352"></polygon>
                <polygon id="Triangle-Copy-106" points="792 264 836 352 748 352"></polygon>
                <polygon id="Triangle-Copy-104" points="880 264 924 352 836 352"></polygon>
                <polygon id="Triangle-Copy-102" points="968 264 1012 352 924 352"></polygon>
                <polygon id="Triangle-Copy-154" points="44 352 88 440 0 440"></polygon>
                <polygon id="Triangle-Copy-153" points="88 352 132 440 44 440"></polygon>
                <polygon id="Triangle-Copy-148" points="308 352 352 440 264 440"></polygon>
                <polygon id="Triangle-Copy-147" points="352 352 396 440 308 440"></polygon>
                <polygon id="Triangle-Copy-146" points="396 352 440 440 352 440"></polygon>
                <polygon id="Triangle-Copy-145" points="440 352 484 440 396 440"></polygon>
                <polygon id="Triangle-Copy-144" points="484 352 528 440 440 440"></polygon>
                <polygon id="Triangle-Copy-142" points="572 352 616 440 528 440"></polygon>
                <polygon id="Triangle-Copy-139" points="704 352 748 440 660 440"></polygon>
                <polygon id="Triangle-Copy-138" points="748 352 792 440 704 440"></polygon>
                <polygon id="Triangle-Copy-137" points="792 352 836 440 748 440"></polygon>
                <polygon id="Triangle-Copy-132" points="1012 352 1056 440 968 440"></polygon>
            </g>
            <g id="Group-4-Copy-3" opacity="0.156000182" transform="translate(-401.000000, -181.000000)" stroke="#FFFFFF">
                <polygon id="Triangle-Copy-82" points="484 176 528 264 440 264"></polygon>
                <polygon id="Triangle-Copy-79" points="616 176 660 264 572 264"></polygon>
                <polygon id="Triangle-Copy-78" points="660 176 704 264 616 264"></polygon>
                <polygon id="Triangle-Copy-74" points="836 176 880 264 792 264"></polygon>
                <polygon id="Triangle-Copy-72" points="924 176 968 264 880 264"></polygon>
                <polygon id="Triangle-Copy-71" points="968 176 1012 264 924 264"></polygon>
                <polygon id="Triangle-Copy-70" points="1012 176 1056 264 968 264"></polygon>
                <polygon id="Triangle-Copy-67" points="1144 176 1188 264 1100 264"></polygon>
                <polygon id="Triangle-Copy-66" points="1188 176 1232 264 1144 264"></polygon>
                <polygon id="Triangle-Copy-63" points="1320 176 1364 264 1276 264"></polygon>
                <polygon id="Triangle-Copy-113" points="484 264 528 352 440 352"></polygon>
                <polygon id="Triangle-Copy-111" points="572 264 616 352 528 352"></polygon>
                <polygon id="Triangle-Copy-109" points="660 264 704 352 616 352"></polygon>
                <polygon id="Triangle-Copy-107" points="748 264 792 352 704 352"></polygon>
                <polygon id="Triangle-Copy-106" points="792 264 836 352 748 352"></polygon>
                <polygon id="Triangle-Copy-104" points="880 264 924 352 836 352"></polygon>
                <polygon id="Triangle-Copy-102" points="968 264 1012 352 924 352"></polygon>
                <polygon id="Triangle-Copy-100" points="1056 264 1100 352 1012 352"></polygon>
                <polygon id="Triangle-Copy-99" points="1100 264 1144 352 1056 352"></polygon>
                <polygon id="Triangle-Copy-96" points="1232 264 1276 352 1188 352"></polygon>
                <polygon id="Triangle-Copy-95" points="1276 264 1320 352 1232 352"></polygon>
                <polygon id="Triangle-Copy-94" points="1320 264 1364 352 1276 352"></polygon>
                <polygon id="Triangle-Copy-93" points="1364 264 1408 352 1320 352"></polygon>
                <polygon id="Triangle-Copy-146" points="396 352 440 440 352 440"></polygon>
                <polygon id="Triangle-Copy-145" points="440 352 484 440 396 440"></polygon>
                <polygon id="Triangle-Copy-144" points="484 352 528 440 440 440"></polygon>
                <polygon id="Triangle-Copy-142" points="572 352 616 440 528 440"></polygon>
                <polygon id="Triangle-Copy-139" points="704 352 748 440 660 440"></polygon>
                <polygon id="Triangle-Copy-138" points="748 352 792 440 704 440"></polygon>
                <polygon id="Triangle-Copy-137" points="792 352 836 440 748 440"></polygon>
                <polygon id="Triangle-Copy-132" points="1012 352 1056 440 968 440"></polygon>
                <polygon id="Triangle-Copy-131" points="1056 352 1100 440 1012 440"></polygon>
                <polygon id="Triangle-Copy-130" points="1100 352 1144 440 1056 440"></polygon>
                <polygon id="Triangle-Copy-128" points="1188 352 1232 440 1144 440"></polygon>
                <polygon id="Triangle-Copy-127" points="1232 352 1276 440 1188 440"></polygon>
                <polygon id="Triangle-Copy-126" points="1276 352 1320 440 1232 440"></polygon>
                <polygon id="Triangle-Copy-125" points="1320 352 1364 440 1276 440"></polygon>
                <polygon id="Triangle-Copy-124" points="1364 352 1408 440 1320 440"></polygon>
            </g>
            <g id="icon" transform="translate(588.000000, -1076.000000)" fill="#DE3423" fill-rule="nonzero">
                <path d="M503.172581,1112.88595 C658.138222,1099.96808 800.468718,1070.81797 925.705043,1025.79733 C995.571538,1000.70713 1059.86239,971.187942 1118.94932,936.501604 L971.782138,613.266122 C951.345556,623.967289 930.165555,633.930292 908.606411,643.154392 C796.751624,691.121043 670.401658,721.009314 533.27435,732.081778 C490.16647,735.772599 448.544684,736.879845 409.524863,736.879845 C392.058983,736.879845 374.964068,736.510763 358.612573,736.141681 L186.181051,1116.20031 C270.910718,1121.36746 381.65335,1122.84379 503.172581,1112.88595 Z" id="Path"></path>
                <path d="M974.384103,1165.28085 C836.517094,1214.35401 680.807291,1246.08769 512.09212,1260.11281 C443.342239,1265.64904 377.937,1267.85615 318.477624,1267.85615 C241.552368,1267.85615 174.289325,1264.17271 121.148265,1260.11281 L-5.6836573e-13,1526.89275 L1388,1526.89275 L1180.6382,1071.55614 C1117.09077,1107.7188 1047.96769,1139.0834 974.384103,1165.28085 Z" id="Path"></path>
            </g>
        </g>
    </g>
</svg>