<?xml version="1.0" encoding="UTF-8"?>
<svg width="16px" height="16px" viewBox="0 0 16 16" version="1.1" xmlns="http://www.w3.org/2000/svg" xmlns:xlink="http://www.w3.org/1999/xlink">
    <title> favicon.svg</title>
    <g id="-favicon.svg" stroke="none" stroke-width="1" fill="none" fill-rule="evenodd">
        <g id="icon" transform="translate(1.000000, 1.000000)" fill-rule="nonzero">
            <path d="M11.263062,9.20289855 C11.263062,9.20289855 5.98525588,8.01550725 4.28948662,5.78588406 L5.73126054,2.68115942 C5.73126054,2.68115942 7.27388875,5.5099058 9.7839158,6.02192029 L11.263062,9.20289855 Z" id="Path" fill="#0D1D31"></path>
            <path d="M1.88997938,10.9730435 C1.88997938,10.9730435 5.58564795,13.6938406 13.9625077,15 L11.8795105,10.5352174 C11.8795105,10.5352174 8.77364827,10.6221014 3.62209368,7.24637681 L1.88997938,10.9730435 Z" id="Path" fill="#0D1D31"></path>
            <path d="M5.07522777,10.9249275 C6.63828178,10.7981159 8.07389197,10.5119565 9.33708256,10.07 C10.0417878,9.82369565 10.6902547,9.53391304 11.2862323,9.1934058 L9.80183712,6.02028261 C9.59570445,6.12533333 9.38207332,6.22313768 9.16461798,6.31368841 C8.03639967,6.78456522 6.76197638,7.07797101 5.37884792,7.18666667 C4.94404221,7.22289855 4.52422592,7.23376812 4.13065424,7.23376812 C3.95448542,7.23376812 3.78205833,7.23014493 3.6171297,7.22652174 L1.87790686,10.9574638 C2.73252886,11.0081884 3.84952947,11.0226812 5.07522777,10.9249275 Z" id="Path" fill="#DE3423"></path>
            <path d="M5.29637985,5.74136957 C6.51083795,5.63994203 7.62031011,5.38275362 8.59113575,4.97705797 C8.79359417,4.89012319 8.99222838,4.79956522 9.18336413,4.70176087 L6.98312846,2.79164775e-15 L4.28808441,5.78483333 C4.61043571,5.78121014 4.94778394,5.76672464 5.29637985,5.74136957 Z" id="Path" fill="#DE3423"></path>
            <path d="M9.82808173,11.4392754 C8.4374923,11.9210145 6.86693233,12.2325362 5.16519429,12.3702174 C4.47175169,12.4245652 3.81204467,12.4462319 3.21231033,12.4462319 C2.43640717,12.4462319 1.75796149,12.4100725 1.22195656,12.3702174 L-5.73279555e-15,14.9891304 L14,14.9891304 L11.9084545,10.5192029 C11.2674861,10.8742029 10.5702793,11.1821014 9.82808173,11.4392754 Z" id="Path" fill="#DE3423"></path>
        </g>
    </g>
</svg>