<?xml version="1.0" encoding="UTF-8"?>
<svg width="93px" height="40px" viewBox="0 0 93 40" version="1.1" xmlns="http://www.w3.org/2000/svg" xmlns:xlink="http://www.w3.org/1999/xlink">
    <title>footer-brand</title>
    <g id="Page-1" stroke="none" stroke-width="1" fill="none" fill-rule="evenodd">
        <g id="sb-logo-horizontal-condensed-copy" fill-rule="nonzero">
            <path d="M42.6916494,8.59942363 C42.6453461,8.52257445 42.4832845,8.40730067 42.2054647,8.25360231 C41.9276449,8.0845341 41.5803701,7.90778098 41.1636403,7.72334294 C40.7469105,7.5389049 40.2915947,7.37752161 39.7976927,7.23919308 C39.3037908,7.10086455 38.8098888,7.03170029 38.3159869,7.03170029 C37.6677406,7.03170029 37.1661214,7.14697406 36.8111294,7.37752161 C36.4561374,7.59269933 36.2786414,7.93083573 36.2786414,8.39193084 C36.2786414,8.76080692 36.4098341,9.05283381 36.6722195,9.26801153 C36.9500393,9.48318924 37.3436174,9.6753122 37.8529538,9.8443804 C38.3622902,9.99807877 38.9873848,10.1825168 39.7282378,10.3976945 C40.7777794,10.6743516 41.6884111,11.012488 42.4601329,11.4121037 C43.2318547,11.7963497 43.8183632,12.2958694 44.2196586,12.9106628 C44.6363883,13.5254563 44.8447532,14.3400576 44.8447532,15.3544669 C44.8447532,16.2766571 44.6749744,17.0605187 44.3354168,17.7060519 C43.9958593,18.3362152 43.5328262,18.8511047 42.9463176,19.2507205 C42.3752435,19.6349664 41.71928,19.9193084 40.9784271,20.1037464 C40.2375741,20.2728146 39.4735696,20.3573487 38.6864133,20.3573487 C37.8838227,20.3573487 37.0580804,20.2804995 36.2091864,20.1268012 C35.3757269,19.9577329 34.5731362,19.7271854 33.8014144,19.4351585 C33.0296926,19.1277618 32.3197086,18.7588857 31.6714623,18.3285303 L33.3383813,15.0317003 C33.4001191,15.1085495 33.6007667,15.2545629 33.9403243,15.4697406 C34.2798819,15.6695485 34.6966117,15.8847262 35.1905136,16.1152738 C35.69985,16.3304515 36.2632069,16.5225744 36.8805844,16.6916427 C37.4979618,16.8607109 38.1230564,16.945245 38.7558683,16.945245 C39.4349835,16.945245 39.9366026,16.8376561 40.2607258,16.6224784 C40.6002834,16.4073007 40.7700622,16.1075889 40.7700622,15.7233429 C40.7700622,15.3083573 40.5925662,14.9855908 40.2375741,14.7550432 C39.8980166,14.5244957 39.4272663,14.3170029 38.8253233,14.1325648 C38.2388147,13.9481268 37.5596995,13.740634 36.7879777,13.5100865 C35.7847394,13.2026897 34.9512799,12.8568684 34.2875991,12.4726225 C33.6393528,12.0883766 33.1531681,11.6195965 32.829045,11.0662824 C32.5203562,10.5129683 32.3660119,9.82132565 32.3660119,8.99135447 C32.3660119,7.83861671 32.6361145,6.870317 33.1763198,6.08645533 C33.7319594,5.28722382 34.4728124,4.68780019 35.3988785,4.28818444 C36.3249447,3.87319885 37.3359002,3.66570605 38.4317451,3.66570605 C39.2034669,3.66570605 39.9443199,3.75792507 40.6543039,3.94236311 C41.3797224,4.12680115 42.0511203,4.3573487 42.6684978,4.63400576 C43.3013096,4.91066282 43.8646666,5.18731988 44.3585685,5.46397695 L42.6916494,8.59942363 Z M52.5828076,20.4034582 C51.5487004,20.4034582 50.6303515,20.23439 49.8277608,19.8962536 C49.0251702,19.5581172 48.3383378,19.0970221 47.7672636,18.5129683 C47.211624,17.9289145 46.787177,17.2603266 46.4939227,16.5072046 C46.2006684,15.7540826 46.0540413,14.9548511 46.0540413,14.1095101 C46.0540413,13.0028818 46.3087095,11.9731028 46.8180458,11.0201729 C47.3428167,10.067243 48.0913868,9.2987512 49.0637563,8.71469741 C50.0361257,8.13064361 51.2091428,7.83861671 52.5828076,7.83861671 C53.9719068,7.83861671 55.144924,8.13832853 56.101859,8.73775216 C57.0742284,9.32180596 57.7996469,10.0902978 58.2781144,11.0432277 L54.6664564,12.1268012 C54.4349399,11.7579251 54.1339684,11.4735831 53.763542,11.2737752 C53.4085499,11.0739673 53.0072546,10.9740634 52.559656,10.9740634 C52.0503196,10.9740634 51.5872865,11.104707 51.1705567,11.3659942 C50.7692614,11.6272815 50.4451383,11.9884726 50.1981873,12.4495677 C49.9666707,12.9106628 49.8509125,13.4639769 49.8509125,14.1095101 C49.8509125,14.7396734 49.974388,15.2929875 50.2213389,15.7694524 C50.4682899,16.2459174 50.7924131,16.6224784 51.1937084,16.8991354 C51.5950037,17.1604227 52.0503196,17.2910663 52.559656,17.2910663 C52.8683447,17.2910663 53.1538817,17.2449568 53.4162671,17.1527378 C53.694087,17.0451489 53.941038,16.8991354 54.1571201,16.7146974 C54.3886366,16.5302594 54.5661326,16.3227666 54.6896081,16.092219 L58.3012661,17.1988473 C58.0080118,17.8136407 57.5835648,18.3669549 57.0279251,18.8587896 C56.4877199,19.3352546 55.8471908,19.7118156 55.1063379,19.9884726 C54.365485,20.2651297 53.5243082,20.4034582 52.5828076,20.4034582 Z M59.2115119,16.5533141 C59.2115119,15.7540826 59.4353113,15.054755 59.8829099,14.4553314 C60.3305085,13.8559078 60.947886,13.3871278 61.7350422,13.0489914 C62.5221984,12.6954851 63.4251129,12.518732 64.4437857,12.518732 C64.9376876,12.518732 65.4238723,12.5648415 65.9023399,12.6570605 C66.3808074,12.7339097 66.7975371,12.8491835 67.1525292,13.0028818 L67.1525292,12.4726225 C67.1525292,11.8117195 66.9518815,11.3045149 66.5505862,10.9510086 C66.1492908,10.5975024 65.5396306,10.4207493 64.7216055,10.4207493 C64.0424903,10.4207493 63.4019613,10.5360231 62.8000183,10.7665706 C62.2135097,10.9971182 61.588415,11.3275696 60.9247343,11.7579251 L59.8134549,9.40634006 C60.6160456,8.88376561 61.4495051,8.49183477 62.3138335,8.23054755 C63.1935964,7.96926033 64.1196625,7.83861671 65.092032,7.83861671 C66.9132954,7.83861671 68.3255463,8.27665706 69.3287846,9.15273775 C70.3474574,10.0134486 70.8567937,11.2660903 70.8567937,12.9106628 L70.8567937,16.0691643 C70.8567937,16.4380403 70.9108143,16.6993276 71.0188553,16.8530259 C71.1423308,16.9913545 71.3506957,17.0758886 71.64395,17.1066282 L71.64395,20.1729107 C71.3352613,20.23439 71.042007,20.2804995 70.7641871,20.3112392 C70.5018017,20.3419789 70.2702852,20.3573487 70.0696375,20.3573487 C69.3750879,20.3573487 68.8425999,20.2190202 68.4721734,19.9423631 C68.1171814,19.6657061 67.8933821,19.2891451 67.8007755,18.8126801 L67.7313205,18.2824207 C67.1911152,18.9740634 66.5428689,19.5043228 65.7865816,19.8731988 C65.0457287,20.2267051 64.2662897,20.4034582 63.4482646,20.4034582 C62.6456739,20.4034582 61.9202554,20.23439 61.2720091,19.8962536 C60.6391972,19.5581172 60.1375781,19.0970221 59.7671516,18.5129683 C59.3967252,17.9289145 59.2115119,17.2756964 59.2115119,16.5533141 Z M66.5737378,17.0144092 C66.7435166,16.8760807 66.8824265,16.7223823 66.9904676,16.5533141 C67.0985086,16.3842459 67.1525292,16.2228626 67.1525292,16.0691643 L67.1525292,14.9855908 C66.8438404,14.8626321 66.4965656,14.7704131 66.1107047,14.7089337 C65.7402783,14.6320845 65.3930035,14.5936599 65.0688803,14.5936599 C64.3897651,14.5936599 63.8264082,14.7473583 63.3788096,15.054755 C62.931211,15.3467819 62.7074116,15.7387128 62.7074116,16.2305476 C62.7074116,16.5072046 62.7845838,16.7608069 62.9389282,16.9913545 C63.0932725,17.221902 63.3016374,17.4063401 63.5640228,17.5446686 C63.8418427,17.6829971 64.1659658,17.7521614 64.5363923,17.7521614 C64.9068187,17.7521614 65.2772452,17.6829971 65.6476717,17.5446686 C66.0180981,17.4063401 66.3267868,17.2295869 66.5737378,17.0144092 Z M73.4945388,3.34293948 L77.1988034,3.34293948 L77.1988034,15.8616715 C77.1988034,16.3688761 77.29141,16.7300672 77.4766233,16.945245 C77.6618365,17.1604227 77.9242219,17.2680115 78.2637795,17.2680115 C78.495296,17.2680115 78.7268126,17.2372719 78.9583291,17.1757925 C79.2052801,17.0989433 79.4213622,17.0144092 79.6065754,16.9221902 L80.0927601,19.6887608 C79.6297271,19.9039385 79.097239,20.0730067 78.495296,20.1959654 C77.893353,20.3189241 77.3299961,20.3804035 76.8052253,20.3804035 C75.7556837,20.3804035 74.9376586,20.1037464 74.35115,19.5504323 C73.7800759,18.9817483 73.4945388,18.1825168 73.4945388,17.1527378 L73.4945388,3.34293948 Z M80.5316769,16.5533141 C80.5316769,15.7540826 80.7554762,15.054755 81.2030749,14.4553314 C81.6506735,13.8559078 82.2680509,13.3871278 83.0552072,13.0489914 C83.8423634,12.6954851 84.7452779,12.518732 85.7639506,12.518732 C86.2578526,12.518732 86.7440373,12.5648415 87.2225048,12.6570605 C87.7009723,12.7339097 88.1177021,12.8491835 88.4726941,13.0028818 L88.4726941,12.4726225 C88.4726941,11.8117195 88.2720465,11.3045149 87.8707511,10.9510086 C87.4694558,10.5975024 86.8597956,10.4207493 86.0417705,10.4207493 C85.3626553,10.4207493 84.7221262,10.5360231 84.1201832,10.7665706 C83.5336747,10.9971182 82.90858,11.3275696 82.2448993,11.7579251 L81.1336199,9.40634006 C81.9362106,8.88376561 82.7696701,8.49183477 83.6339985,8.23054755 C84.5137613,7.96926033 85.4398275,7.83861671 86.4121969,7.83861671 C88.2334604,7.83861671 89.6457112,8.27665706 90.6489496,9.15273775 C91.6676223,10.0134486 92.1769587,11.2660903 92.1769587,12.9106628 L92.1769587,16.0691643 C92.1769587,16.4380403 92.2309792,16.6993276 92.3390203,16.8530259 C92.4624958,16.9913545 92.6708607,17.0758886 92.9641149,17.1066282 L92.9641149,20.1729107 C92.6554262,20.23439 92.3621719,20.2804995 92.0843521,20.3112392 C91.8219667,20.3419789 91.5904502,20.3573487 91.3898025,20.3573487 C90.6952529,20.3573487 90.1627648,20.2190202 89.7923384,19.9423631 C89.4373464,19.6657061 89.213547,19.2891451 89.1209404,18.8126801 L89.0514855,18.2824207 C88.5112802,18.9740634 87.8630339,19.5043228 87.1067465,19.8731988 C86.3658936,20.2267051 85.5864546,20.4034582 84.7684295,20.4034582 C83.9658389,20.4034582 83.2404204,20.23439 82.5921741,19.8962536 C81.9593622,19.5581172 81.457743,19.0970221 81.0873166,18.5129683 C80.7168901,17.9289145 80.5316769,17.2756964 80.5316769,16.5533141 Z M87.8939028,17.0144092 C88.0636816,16.8760807 88.2025915,16.7223823 88.3106325,16.5533141 C88.4186736,16.3842459 88.4726941,16.2228626 88.4726941,16.0691643 L88.4726941,14.9855908 C88.1640054,14.8626321 87.8167306,14.7704131 87.4308697,14.7089337 C87.0604432,14.6320845 86.7131684,14.5936599 86.3890453,14.5936599 C85.7099301,14.5936599 85.1465732,14.7473583 84.6989746,15.054755 C84.2513759,15.3467819 84.0275766,15.7387128 84.0275766,16.2305476 C84.0275766,16.5072046 84.1047488,16.7608069 84.2590931,16.9913545 C84.4134375,17.221902 84.6218024,17.4063401 84.8841878,17.5446686 C85.1620076,17.6829971 85.4861308,17.7521614 85.8565572,17.7521614 C86.2269837,17.7521614 86.5974102,17.6829971 86.9678366,17.5446686 C87.3382631,17.4063401 87.6469518,17.2295869 87.8939028,17.0144092 Z" id="Shape" fill="#FFFFFF"></path>
            <path d="M48.1168536,40 C47.1907875,40 46.3804796,39.807877 45.68593,39.4236311 C44.9913804,39.0240154 44.4434579,38.4707012 44.0421626,37.7636888 L44.0421626,39.7694524 L40.8240827,39.7694524 L40.8240827,22.9394813 L44.5283473,22.9394813 L44.5283473,29.648415 C44.9296426,28.9414025 45.4621307,28.3957733 46.1258114,28.0115274 C46.8049266,27.6272815 47.5998,27.4351585 48.5104317,27.4351585 C49.2821535,27.4351585 49.9844203,27.6042267 50.6172322,27.9423631 C51.2654785,28.2651297 51.8211182,28.7185399 52.2841513,29.3025937 C52.7626188,29.8712776 53.1330453,30.5398655 53.3954307,31.3083573 C53.6578161,32.0614793 53.7890088,32.8837656 53.7890088,33.7752161 C53.7890088,34.6512968 53.6423816,35.4658982 53.3491274,36.2190202 C53.0713075,36.9721422 52.6777294,37.6330451 52.168393,38.2017291 C51.6590566,38.7704131 51.0571136,39.2161383 50.362564,39.5389049 C49.6834488,39.8463016 48.9348787,40 48.1168536,40 Z M47.0750292,36.8876081 C47.491759,36.8876081 47.8776199,36.8107589 48.2326119,36.6570605 C48.6030383,36.4879923 48.9194443,36.2651297 49.1818297,35.9884726 C49.4442151,35.7118156 49.6448628,35.389049 49.7837727,35.0201729 C49.9226826,34.635927 49.9921376,34.2209414 49.9921376,33.7752161 C49.9921376,33.2065322 49.8763793,32.6762728 49.6448628,32.184438 C49.4133462,31.6926033 49.0892231,31.3006724 48.6724933,31.0086455 C48.271198,30.7166186 47.8004477,30.5706052 47.2602424,30.5706052 C46.8743815,30.5706052 46.5039551,30.6628242 46.1489631,30.8472622 C45.793971,31.0317003 45.4775651,31.2853026 45.1997452,31.6080692 C44.9219254,31.9154659 44.6981261,32.2689721 44.5283473,32.6685879 L44.5283473,35.204611 C44.6518228,35.4658982 44.8061671,35.7041306 44.9913804,35.9193084 C45.1765936,36.1191162 45.3772413,36.2881844 45.5933234,36.426513 C45.8248399,36.5648415 46.0640737,36.6801153 46.3110246,36.7723343 C46.57341,36.8491835 46.8280782,36.8876081 47.0750292,36.8876081 Z M54.8690334,36.1498559 C54.8690334,35.3506244 55.0928327,34.6512968 55.5404314,34.0518732 C55.98803,33.4524496 56.6054074,32.9836695 57.3925637,32.6455331 C58.1797199,32.2920269 59.0826344,32.1152738 60.1013072,32.1152738 C60.5952091,32.1152738 61.0813938,32.1613833 61.5598613,32.2536023 C62.0383288,32.3304515 62.4550586,32.4457253 62.8100506,32.5994236 L62.8100506,32.0691643 C62.8100506,31.4082613 62.609403,30.9010567 62.2081076,30.5475504 C61.8068123,30.1940442 61.1971521,30.0172911 60.379127,30.0172911 C59.7000118,30.0172911 59.0594827,30.1325648 58.4575397,30.3631124 C57.8710312,30.5936599 57.2459365,30.9241114 56.5822558,31.3544669 L55.4709764,29.0028818 C56.2735671,28.4803074 57.1070266,28.0883766 57.971355,27.8270893 C58.8511179,27.5658021 59.777184,27.4351585 60.7495535,27.4351585 C62.5708169,27.4351585 63.9830678,27.8731988 64.9863061,28.7492795 C66.0049789,29.6099904 66.5143152,30.8626321 66.5143152,32.5072046 L66.5143152,35.6657061 C66.5143152,36.0345821 66.5683358,36.2958694 66.6763768,36.4495677 C66.7998523,36.5878963 67.0082172,36.6724304 67.3014715,36.70317 L67.3014715,39.7694524 C66.9927827,39.8309318 66.6995285,39.8770413 66.4217086,39.907781 C66.1593232,39.9385207 65.9278067,39.9538905 65.727159,39.9538905 C65.0326094,39.9538905 64.5001214,39.815562 64.1296949,39.5389049 C63.7747029,39.2622478 63.5509036,38.8856868 63.4582969,38.4092219 L63.388842,37.8789625 C62.8486367,38.5706052 62.2003904,39.1008646 61.4441031,39.4697406 C60.7032502,39.8232469 59.9238111,40 59.105786,40 C58.3031954,40 57.5777769,39.8309318 56.9295306,39.4927954 C56.2967187,39.154659 55.7950996,38.6935639 55.4246731,38.1095101 C55.0542466,37.5254563 54.8690334,36.8722382 54.8690334,36.1498559 Z M62.2312593,36.610951 C62.4010381,36.4726225 62.539948,36.3189241 62.6479891,36.1498559 C62.7560301,35.9807877 62.8100506,35.8194044 62.8100506,35.6657061 L62.8100506,34.5821326 C62.5013619,34.4591739 62.1540871,34.3669549 61.7682262,34.3054755 C61.3977998,34.2286263 61.050525,34.1902017 60.7264018,34.1902017 C60.0472866,34.1902017 59.4839297,34.3439001 59.0363311,34.6512968 C58.5887324,34.9433237 58.3649331,35.3352546 58.3649331,35.8270893 C58.3649331,36.1037464 58.4421053,36.3573487 58.5964497,36.5878963 C58.750794,36.8184438 58.9591589,37.0028818 59.2215443,37.1412104 C59.4993642,37.2795389 59.8234873,37.3487032 60.1939138,37.3487032 C60.5643402,37.3487032 60.9347667,37.2795389 61.3051931,37.1412104 C61.6756196,37.0028818 61.9843083,36.8261287 62.2312593,36.610951 Z M73.851846,40 C72.8177388,40 71.8067833,39.8309318 70.8189794,39.4927954 C69.8311755,39.154659 68.997716,38.6551393 68.3186008,37.9942363 L69.5919417,35.6657061 C70.3327946,36.2036503 71.0504959,36.610951 71.7450455,36.8876081 C72.4550296,37.1642651 73.1187103,37.3025937 73.7360877,37.3025937 C74.2145553,37.3025937 74.5849817,37.2257445 74.8473671,37.0720461 C75.1097525,36.9183477 75.2409452,36.6801153 75.2409452,36.3573487 C75.2409452,36.1268012 75.1637731,35.950048 75.0094287,35.8270893 C74.8550843,35.6887608 74.6158506,35.5658021 74.2917274,35.4582133 C73.9830387,35.3506244 73.5971778,35.2353506 73.1341447,35.1123919 C72.2080786,34.8049952 71.4363568,34.5052834 70.8189794,34.2132565 C70.2016019,33.9212296 69.7385689,33.5677233 69.4298802,33.1527378 C69.1211914,32.7223823 68.9668471,32.1690682 68.9668471,31.4927954 C68.9668471,30.678194 69.1674947,29.9711816 69.5687901,29.3717579 C69.9855198,28.7569645 70.5720284,28.2804995 71.3283158,27.9423631 C72.0846031,27.6042267 72.9875176,27.4351585 74.0370592,27.4351585 C74.8705188,27.4351585 75.6808267,27.5658021 76.4679829,27.8270893 C77.2705735,28.0883766 78.0191437,28.5264169 78.7136933,29.1412104 L77.2782908,31.4466859 C76.5837411,30.9702209 75.9663637,30.6243996 75.4261585,30.4092219 C74.8859532,30.1940442 74.3611824,30.0864553 73.851846,30.0864553 C73.5894606,30.0864553 73.3502268,30.117195 73.1341447,30.1786744 C72.9180626,30.2401537 72.7405666,30.3477426 72.6016567,30.5014409 C72.4781812,30.6397695 72.4164435,30.8242075 72.4164435,31.054755 C72.4164435,31.2853026 72.4781812,31.4697406 72.6016567,31.6080692 C72.7405666,31.7463977 72.9489315,31.8693564 73.2267514,31.9769452 C73.5200056,32.0691643 73.8827149,32.184438 74.3148791,32.3227666 C75.3181174,32.6147935 76.1515769,32.9145053 76.8152577,33.221902 C77.4789384,33.5139289 77.9728404,33.882805 78.2969635,34.3285303 C78.6365211,34.7588857 78.8062999,35.3352546 78.8062999,36.0576369 C78.8062999,37.2872238 78.3587013,38.2555235 77.463504,38.962536 C76.5837411,39.6541787 75.3798552,40 73.851846,40 Z M86.517537,40 C85.4834298,40 84.5650808,39.8386167 83.7624902,39.5158501 C82.9598995,39.1777137 82.2730671,38.7243036 81.701993,38.1556196 C81.1463533,37.5869356 80.7219063,36.9337176 80.428652,36.1959654 C80.1353978,35.4428434 79.9887706,34.6589817 79.9887706,33.8443804 C79.9887706,32.6762728 80.2434388,31.6157541 80.7527752,30.6628242 C81.277546,29.6945245 82.0261161,28.9183477 82.9984856,28.3342939 C83.9708551,27.7348703 85.1438722,27.4351585 86.517537,27.4351585 C87.8912017,27.4351585 89.0565017,27.7271854 90.0134367,28.3112392 C90.9858061,28.895293 91.726659,29.6637848 92.2359954,30.6167147 C92.7453318,31.5542747 93,32.5763689 93,33.6829971 C93,33.8981748 92.9845656,34.1133525 92.9536967,34.3285303 C92.9382623,34.5283381 92.9228278,34.7050913 92.9073934,34.8587896 L83.9245517,34.8587896 C83.9708551,35.3967339 84.1174822,35.8501441 84.3644332,36.2190202 C84.6268186,36.5878963 84.9586589,36.8722382 85.3599543,37.0720461 C85.7612496,37.2564841 86.1856966,37.3487032 86.6332952,37.3487032 C87.1889349,37.3487032 87.7059885,37.2180596 88.184456,36.9567723 C88.678358,36.6954851 89.0179156,36.3419789 89.2031288,35.8962536 L92.3517537,36.7723343 C92.043065,37.4024976 91.6031836,37.9634966 91.0321094,38.4553314 C90.4764697,38.9317963 89.812789,39.3083573 89.0410672,39.5850144 C88.2847799,39.8616715 87.4436031,40 86.517537,40 Z M83.8319451,32.5994236 L89.1105222,32.5994236 C89.0487844,32.092219 88.9021573,31.6541787 88.6706408,31.2853026 C88.4391242,30.9010567 88.1304355,30.6090298 87.7445746,30.4092219 C87.3587137,30.1940442 86.9342667,30.0864553 86.4712337,30.0864553 C85.9927661,30.0864553 85.5606019,30.1940442 85.174741,30.4092219 C84.8043146,30.6090298 84.5033431,30.9010567 84.2718266,31.2853026 C84.04031,31.6541787 83.8936829,32.092219 83.8319451,32.5994236 Z" id="Shape" fill="#FFFFFF"></path>
            <path d="M28.9791179,24.3996158 C28.9791179,24.3996158 15.3996697,21.251489 11.036567,15.3400961 L14.7461564,7.10854947 C14.7461564,7.10854947 18.7152374,14.6083958 25.1733719,15.9658982 L28.9791179,24.3996158 Z" id="Path" fill="#DE3423" opacity="0.567564499"></path>
            <path d="M4.86279264,29.0927954 C4.86279264,29.0927954 14.3715048,36.3064361 35.924614,39.7694524 L30.5651991,27.9319885 C30.5651991,27.9319885 22.5740199,28.1623439 9.3194088,19.2122959 L4.86279264,29.0927954 Z" id="Path" fill="#DE3423" opacity="0.567564499"></path>
            <path d="M13.0582272,28.9652257 C17.0798624,28.6290106 20.773593,27.870317 24.0236993,26.6985591 C25.8368597,26.0455331 27.5053222,25.2772334 29.0387334,24.3744476 L25.2194822,15.9615562 C24.6891164,16.2400768 24.1394576,16.4993852 23.5799593,16.7394621 C20.6771278,17.9878963 17.3981205,18.7658021 13.8394219,19.0539866 C12.7206954,19.150048 11.6405357,19.1788665 10.6279017,19.1788665 C10.1746309,19.1788665 9.73098733,19.1692603 9.30663681,19.1596542 L4.83173084,29.051489 C7.03061702,29.185975 9.90458614,29.2243996 13.0582272,28.9652257 Z" id="Path" fill="#DE3423"></path>
            <path d="M13.627237,15.2220749 C16.7519578,14.9531604 19.6065567,14.2712776 22.1044272,13.195658 C22.6253394,12.9651681 23.1364122,12.725072 23.6281919,12.4657637 L17.9671303,0 L11.0329592,15.3373103 C11.8623479,15.3277041 12.7303227,15.2892988 13.627237,15.2220749 Z" id="Path" fill="#DE3423"></path>
            <path d="M25.2870079,30.3289145 C21.7091127,31.6061479 17.6681652,32.4320845 13.2897052,32.7971182 C11.505523,32.9412104 9.80814021,32.9986551 8.2650632,32.9986551 C6.26871539,32.9986551 4.52311929,32.9027858 3.14401387,32.7971182 L0,39.740634 L36.0210792,39.740634 L30.6396702,27.8895293 C28.9905008,28.8307397 27.1966335,29.6470701 25.2870079,30.3289145 Z" id="Path" fill="#DE3423"></path>
        </g>
    </g>
</svg>