<?xml version="1.0" encoding="UTF-8"?>
<svg width="3395px" height="600px" viewBox="0 0 3395 600" version="1.1" xmlns="http://www.w3.org/2000/svg" xmlns:xlink="http://www.w3.org/1999/xlink">
    <title>masthead-background</title>
    <defs>
        <rect id="path-1" x="0" y="0" width="3395" height="600"></rect>
    </defs>
    <g id="Page-1" stroke="none" stroke-width="1" fill="none" fill-rule="evenodd">
        <g id="background">
            <mask id="mask-2" fill="white">
                <use xlink:href="#path-1"></use>
            </mask>
            <g></g>
            <g id="path" opacity="0.156000182" mask="url(#mask-2)" stroke="#FFFFFF">
                <g transform="translate(1102.000000, 1.000000)">
                    <polygon id="Triangle" points="44 0 88 88 0 88"></polygon>
                    <polygon id="Triangle-Copy-31" points="44 88 88 176 0 176"></polygon>
                    <polygon id="Triangle-Copy" points="88 0 132 88 44 88"></polygon>
                    <polygon id="Triangle-Copy-32" points="88 88 132 176 44 176"></polygon>
                    <polygon id="Triangle-Copy-2" points="132 0 176 88 88 88"></polygon>
                    <polygon id="Triangle-Copy-33" points="132 88 176 176 88 176"></polygon>
                    <polygon id="Triangle-Copy-3" points="176 0 220 88 132 88"></polygon>
                    <polygon id="Triangle-Copy-34" points="176 88 220 176 132 176"></polygon>
                    <polygon id="Triangle-Copy-4" points="220 0 264 88 176 88"></polygon>
                    <polygon id="Triangle-Copy-5" points="264 0 308 88 220 88"></polygon>
                    <polygon id="Triangle-Copy-36" points="264 88 308 176 220 176"></polygon>
                    <polygon id="Triangle-Copy-8" points="396 0 440 88 352 88"></polygon>
                    <polygon id="Triangle-Copy-39" points="396 88 440 176 352 176"></polygon>
                    <polygon id="Triangle-Copy-9" points="440 0 484 88 396 88"></polygon>
                    <polygon id="Triangle-Copy-12" points="572 0 616 88 528 88"></polygon>
                    <polygon id="Triangle-Copy-13" points="616 0 660 88 572 88"></polygon>
                    <polygon id="Triangle-Copy-44" points="616 88 660 176 572 176"></polygon>
                    <polygon id="Triangle-Copy-14" points="660 0 704 88 616 88"></polygon>
                    <polygon id="Triangle-Copy-45" points="660 88 704 176 616 176"></polygon>
                    <polygon id="Triangle-Copy-46" points="704 88 748 176 660 176"></polygon>
                    <polygon id="Triangle-Copy-16" points="748 0 792 88 704 88"></polygon>
                    <polygon id="Triangle-Copy-48" points="792 88 836 176 748 176"></polygon>
                    <polygon id="Triangle-Copy-49" points="836 88 880 176 792 176"></polygon>
                    <polygon id="Triangle-Copy-19" points="880 0 924 88 836 88"></polygon>
                    <polygon id="Triangle-Copy-50" points="880 88 924 176 836 176"></polygon>
                    <polygon id="Triangle-Copy-21" points="968 0 1012 88 924 88"></polygon>
                    <polygon id="Triangle-Copy-52" points="968 88 1012 176 924 176"></polygon>
                    <polygon id="Triangle-Copy-53" points="1012 88 1056 176 968 176"></polygon>
                    <polygon id="Triangle-Copy-23" points="1056 0 1100 88 1012 88"></polygon>
                    <polygon id="Triangle-Copy-54" points="1056 88 1100 176 1012 176"></polygon>
                    <polygon id="Triangle-Copy-24" points="1100 0 1144 88 1056 88"></polygon>
                    <polygon id="Triangle-Copy-55" points="1100 88 1144 176 1056 176"></polygon>
                    <polygon id="Triangle-Copy-57" points="1188 88 1232 176 1144 176"></polygon>
                    <polygon id="Triangle-Copy-59" points="1276 88 1320 176 1232 176"></polygon>
                    <polygon id="Triangle-Copy-60" points="1320 88 1364 176 1276 176"></polygon>
                    <polygon id="Triangle-Copy-30" points="1364 0 1408 88 1320 88"></polygon>
                    <polygon id="Triangle-Copy-61" points="1364 88 1408 176 1320 176"></polygon>
                    <polygon id="Triangle-Copy-92" points="44 176 88 264 0 264"></polygon>
                    <polygon id="Triangle-Copy-91" points="88 176 132 264 44 264"></polygon>
                    <polygon id="Triangle-Copy-90" points="132 176 176 264 88 264"></polygon>
                    <polygon id="Triangle-Copy-89" points="176 176 220 264 132 264"></polygon>
                    <polygon id="Triangle-Copy-88" points="220 176 264 264 176 264"></polygon>
                    <polygon id="Triangle-Copy-87" points="264 176 308 264 220 264"></polygon>
                    <polygon id="Triangle-Copy-86" points="308 176 352 264 264 264"></polygon>
                    <polygon id="Triangle-Copy-85" points="352 176 396 264 308 264"></polygon>
                    <polygon id="Triangle-Copy-84" points="396 176 440 264 352 264"></polygon>
                    <polygon id="Triangle-Copy-83" points="440 176 484 264 396 264"></polygon>
                    <polygon id="Triangle-Copy-82" points="484 176 528 264 440 264"></polygon>
                    <polygon id="Triangle-Copy-79" points="616 176 660 264 572 264"></polygon>
                    <polygon id="Triangle-Copy-78" points="660 176 704 264 616 264"></polygon>
                    <polygon id="Triangle-Copy-74" points="836 176 880 264 792 264"></polygon>
                    <polygon id="Triangle-Copy-72" points="924 176 968 264 880 264"></polygon>
                    <polygon id="Triangle-Copy-71" points="968 176 1012 264 924 264"></polygon>
                    <polygon id="Triangle-Copy-70" points="1012 176 1056 264 968 264"></polygon>
                    <polygon id="Triangle-Copy-68" points="1100 176 1144 264 1056 264"></polygon>
                    <polygon id="Triangle-Copy-67" points="1144 176 1188 264 1100 264"></polygon>
                    <polygon id="Triangle-Copy-66" points="1188 176 1232 264 1144 264"></polygon>
                    <polygon id="Triangle-Copy-64" points="1276 176 1320 264 1232 264"></polygon>
                    <polygon id="Triangle-Copy-63" points="1320 176 1364 264 1276 264"></polygon>
                    <polygon id="Triangle-Copy-123" points="44 264 88 352 0 352"></polygon>
                    <polygon id="Triangle-Copy-122" points="88 264 132 352 44 352"></polygon>
                    <polygon id="Triangle-Copy-121" points="132 264 176 352 88 352"></polygon>
                    <polygon id="Triangle-Copy-120" points="176 264 220 352 132 352"></polygon>
                    <polygon id="Triangle-Copy-117" points="308 264 352 352 264 352"></polygon>
                    <polygon id="Triangle-Copy-116" points="352 264 396 352 308 352"></polygon>
                    <polygon id="Triangle-Copy-113" points="484 264 528 352 440 352"></polygon>
                    <polygon id="Triangle-Copy-111" points="572 264 616 352 528 352"></polygon>
                    <polygon id="Triangle-Copy-109" points="660 264 704 352 616 352"></polygon>
                    <polygon id="Triangle-Copy-107" points="748 264 792 352 704 352"></polygon>
                    <polygon id="Triangle-Copy-106" points="792 264 836 352 748 352"></polygon>
                    <polygon id="Triangle-Copy-104" points="880 264 924 352 836 352"></polygon>
                    <polygon id="Triangle-Copy-103" points="924 264 968 352 880 352"></polygon>
                    <polygon id="Triangle-Copy-102" points="968 264 1012 352 924 352"></polygon>
                    <polygon id="Triangle-Copy-100" points="1056 264 1100 352 1012 352"></polygon>
                    <polygon id="Triangle-Copy-99" points="1100 264 1144 352 1056 352"></polygon>
                    <polygon id="Triangle-Copy-97" points="1188 264 1232 352 1144 352"></polygon>
                    <polygon id="Triangle-Copy-96" points="1232 264 1276 352 1188 352"></polygon>
                    <polygon id="Triangle-Copy-95" points="1276 264 1320 352 1232 352"></polygon>
                    <polygon id="Triangle-Copy-94" points="1320 264 1364 352 1276 352"></polygon>
                    <polygon id="Triangle-Copy-93" points="1364 264 1408 352 1320 352"></polygon>
                    <polygon id="Triangle-Copy-154" points="44 352 88 440 0 440"></polygon>
                    <polygon id="Triangle-Copy-153" points="88 352 132 440 44 440"></polygon>
                    <polygon id="Triangle-Copy-148" points="308 352 352 440 264 440"></polygon>
                    <polygon id="Triangle-Copy-147" points="352 352 396 440 308 440"></polygon>
                    <polygon id="Triangle-Copy-146" points="396 352 440 440 352 440"></polygon>
                    <polygon id="Triangle-Copy-145" points="440 352 484 440 396 440"></polygon>
                    <polygon id="Triangle-Copy-144" points="484 352 528 440 440 440"></polygon>
                    <polygon id="Triangle-Copy-142" points="572 352 616 440 528 440"></polygon>
                    <polygon id="Triangle-Copy-139" points="704 352 748 440 660 440"></polygon>
                    <polygon id="Triangle-Copy-138" points="748 352 792 440 704 440"></polygon>
                    <polygon id="Triangle-Copy-137" points="792 352 836 440 748 440"></polygon>
                    <polygon id="Triangle-Copy-132" points="1012 352 1056 440 968 440"></polygon>
                    <polygon id="Triangle-Copy-131" points="1056 352 1100 440 1012 440"></polygon>
                    <polygon id="Triangle-Copy-130" points="1100 352 1144 440 1056 440"></polygon>
                    <polygon id="Triangle-Copy-128" points="1188 352 1232 440 1144 440"></polygon>
                    <polygon id="Triangle-Copy-127" points="1232 352 1276 440 1188 440"></polygon>
                    <polygon id="Triangle-Copy-126" points="1276 352 1320 440 1232 440"></polygon>
                    <polygon id="Triangle-Copy-125" points="1320 352 1364 440 1276 440"></polygon>
                    <polygon id="Triangle-Copy-124" points="1364 352 1408 440 1320 440"></polygon>
                    <polygon id="Triangle-Copy-183" points="132 440 176 528 88 528"></polygon>
                    <polygon id="Triangle-Copy-182" points="176 440 220 528 132 528"></polygon>
                    <polygon id="Triangle-Copy-179" points="308 440 352 528 264 528"></polygon>
                    <polygon id="Triangle-Copy-178" points="352 440 396 528 308 528"></polygon>
                    <polygon id="Triangle-Copy-177" points="396 440 440 528 352 528"></polygon>
                    <polygon id="Triangle-Copy-176" points="440 440 484 528 396 528"></polygon>
                    <polygon id="Triangle-Copy-175" points="484 440 528 528 440 528"></polygon>
                    <polygon id="Triangle-Copy-174" points="528 440 572 528 484 528"></polygon>
                    <polygon id="Triangle-Copy-173" points="572 440 616 528 528 528"></polygon>
                    <polygon id="Triangle-Copy-169" points="748 440 792 528 704 528"></polygon>
                    <polygon id="Triangle-Copy-168" points="792 440 836 528 748 528"></polygon>
                    <polygon id="Triangle-Copy-167" points="836 440 880 528 792 528"></polygon>
                    <polygon id="Triangle-Copy-165" points="924 440 968 528 880 528"></polygon>
                    <polygon id="Triangle-Copy-164" points="968 440 1012 528 924 528"></polygon>
                    <polygon id="Triangle-Copy-162" points="1056 440 1100 528 1012 528"></polygon>
                    <polygon id="Triangle-Copy-159" points="1188 440 1232 528 1144 528"></polygon>
                    <polygon id="Triangle-Copy-158" points="1232 440 1276 528 1188 528"></polygon>
                    <polygon id="Triangle-Copy-156" points="1320 440 1364 528 1276 528"></polygon>
                    <polygon id="Triangle-Copy-155" points="1364 440 1408 528 1320 528"></polygon>
                    <polygon id="Triangle-Copy-215" points="88 528 132 616 44 616"></polygon>
                    <polygon id="Triangle-Copy-213" points="176 528 220 616 132 616"></polygon>
                    <polygon id="Triangle-Copy-212" points="220 528 264 616 176 616"></polygon>
                    <polygon id="Triangle-Copy-211" points="264 528 308 616 220 616"></polygon>
                    <polygon id="Triangle-Copy-210" points="308 528 352 616 264 616"></polygon>
                    <polygon id="Triangle-Copy-209" points="352 528 396 616 308 616"></polygon>
                    <polygon id="Triangle-Copy-208" points="396 528 440 616 352 616"></polygon>
                    <polygon id="Triangle-Copy-207" points="440 528 484 616 396 616"></polygon>
                    <polygon id="Triangle-Copy-206" points="484 528 528 616 440 616"></polygon>
                    <polygon id="Triangle-Copy-203" points="616 528 660 616 572 616"></polygon>
                    <polygon id="Triangle-Copy-202" points="660 528 704 616 616 616"></polygon>
                    <polygon id="Triangle-Copy-201" points="704 528 748 616 660 616"></polygon>
                    <polygon id="Triangle-Copy-200" points="748 528 792 616 704 616"></polygon>
                    <polygon id="Triangle-Copy-199" points="792 528 836 616 748 616"></polygon>
                    <polygon id="Triangle-Copy-198" points="836 528 880 616 792 616"></polygon>
                    <polygon id="Triangle-Copy-197" points="880 528 924 616 836 616"></polygon>
                    <polygon id="Triangle-Copy-196" points="924 528 968 616 880 616"></polygon>
                    <polygon id="Triangle-Copy-195" points="968 528 1012 616 924 616"></polygon>
                    <polygon id="Triangle-Copy-194" points="1012 528 1056 616 968 616"></polygon>
                    <polygon id="Triangle-Copy-192" points="1100 528 1144 616 1056 616"></polygon>
                    <polygon id="Triangle-Copy-191" points="1144 528 1188 616 1100 616"></polygon>
                    <polygon id="Triangle-Copy-189" points="1232 528 1276 616 1188 616"></polygon>
                    <polygon id="Triangle-Copy-188" points="1276 528 1320 616 1232 616"></polygon>
                    <polygon id="Triangle-Copy-187" points="1320 528 1364 616 1276 616"></polygon>
                    <polygon id="Triangle-Copy-186" points="1364 528 1408 616 1320 616"></polygon>
                </g>
            </g>
            <g id="path" opacity="0.156000182" mask="url(#mask-2)" stroke="#FFFFFF">
                <g transform="translate(2510.000000, 1.000000)">
                    <polygon id="Triangle" points="44 0 88 88 0 88"></polygon>
                    <polygon id="Triangle-Copy-31" points="44 88 88 176 0 176"></polygon>
                    <polygon id="Triangle-Copy" points="88 0 132 88 44 88"></polygon>
                    <polygon id="Triangle-Copy-32" points="88 88 132 176 44 176"></polygon>
                    <polygon id="Triangle-Copy-2" points="132 0 176 88 88 88"></polygon>
                    <polygon id="Triangle-Copy-33" points="132 88 176 176 88 176"></polygon>
                    <polygon id="Triangle-Copy-3" points="176 0 220 88 132 88"></polygon>
                    <polygon id="Triangle-Copy-34" points="176 88 220 176 132 176"></polygon>
                    <polygon id="Triangle-Copy-4" points="220 0 264 88 176 88"></polygon>
                    <polygon id="Triangle-Copy-5" points="264 0 308 88 220 88"></polygon>
                    <polygon id="Triangle-Copy-36" points="264 88 308 176 220 176"></polygon>
                    <polygon id="Triangle-Copy-8" points="396 0 440 88 352 88"></polygon>
                    <polygon id="Triangle-Copy-39" points="396 88 440 176 352 176"></polygon>
                    <polygon id="Triangle-Copy-9" points="440 0 484 88 396 88"></polygon>
                    <polygon id="Triangle-Copy-12" points="572 0 616 88 528 88"></polygon>
                    <polygon id="Triangle-Copy-13" points="616 0 660 88 572 88"></polygon>
                    <polygon id="Triangle-Copy-44" points="616 88 660 176 572 176"></polygon>
                    <polygon id="Triangle-Copy-14" points="660 0 704 88 616 88"></polygon>
                    <polygon id="Triangle-Copy-45" points="660 88 704 176 616 176"></polygon>
                    <polygon id="Triangle-Copy-46" points="704 88 748 176 660 176"></polygon>
                    <polygon id="Triangle-Copy-16" points="748 0 792 88 704 88"></polygon>
                    <polygon id="Triangle-Copy-48" points="792 88 836 176 748 176"></polygon>
                    <polygon id="Triangle-Copy-49" points="836 88 880 176 792 176"></polygon>
                    <polygon id="Triangle-Copy-19" points="880 0 924 88 836 88"></polygon>
                    <polygon id="Triangle-Copy-50" points="880 88 924 176 836 176"></polygon>
                    <polygon id="Triangle-Copy-92" points="44 176 88 264 0 264"></polygon>
                    <polygon id="Triangle-Copy-91" points="88 176 132 264 44 264"></polygon>
                    <polygon id="Triangle-Copy-90" points="132 176 176 264 88 264"></polygon>
                    <polygon id="Triangle-Copy-89" points="176 176 220 264 132 264"></polygon>
                    <polygon id="Triangle-Copy-88" points="220 176 264 264 176 264"></polygon>
                    <polygon id="Triangle-Copy-87" points="264 176 308 264 220 264"></polygon>
                    <polygon id="Triangle-Copy-86" points="308 176 352 264 264 264"></polygon>
                    <polygon id="Triangle-Copy-85" points="352 176 396 264 308 264"></polygon>
                    <polygon id="Triangle-Copy-84" points="396 176 440 264 352 264"></polygon>
                    <polygon id="Triangle-Copy-83" points="440 176 484 264 396 264"></polygon>
                    <polygon id="Triangle-Copy-82" points="484 176 528 264 440 264"></polygon>
                    <polygon id="Triangle-Copy-79" points="616 176 660 264 572 264"></polygon>
                    <polygon id="Triangle-Copy-78" points="660 176 704 264 616 264"></polygon>
                    <polygon id="Triangle-Copy-74" points="836 176 880 264 792 264"></polygon>
                    <polygon id="Triangle-Copy-72" points="924 176 968 264 880 264"></polygon>
                    <polygon id="Triangle-Copy-123" points="44 264 88 352 0 352"></polygon>
                    <polygon id="Triangle-Copy-122" points="88 264 132 352 44 352"></polygon>
                    <polygon id="Triangle-Copy-121" points="132 264 176 352 88 352"></polygon>
                    <polygon id="Triangle-Copy-120" points="176 264 220 352 132 352"></polygon>
                    <polygon id="Triangle-Copy-117" points="308 264 352 352 264 352"></polygon>
                    <polygon id="Triangle-Copy-116" points="352 264 396 352 308 352"></polygon>
                    <polygon id="Triangle-Copy-113" points="484 264 528 352 440 352"></polygon>
                    <polygon id="Triangle-Copy-111" points="572 264 616 352 528 352"></polygon>
                    <polygon id="Triangle-Copy-109" points="660 264 704 352 616 352"></polygon>
                    <polygon id="Triangle-Copy-107" points="748 264 792 352 704 352"></polygon>
                    <polygon id="Triangle-Copy-106" points="792 264 836 352 748 352"></polygon>
                    <polygon id="Triangle-Copy-104" points="880 264 924 352 836 352"></polygon>
                    <polygon id="Triangle-Copy-103" points="924 264 968 352 880 352"></polygon>
                    <polygon id="Triangle-Copy-154" points="44 352 88 440 0 440"></polygon>
                    <polygon id="Triangle-Copy-153" points="88 352 132 440 44 440"></polygon>
                    <polygon id="Triangle-Copy-148" points="308 352 352 440 264 440"></polygon>
                    <polygon id="Triangle-Copy-147" points="352 352 396 440 308 440"></polygon>
                    <polygon id="Triangle-Copy-146" points="396 352 440 440 352 440"></polygon>
                    <polygon id="Triangle-Copy-145" points="440 352 484 440 396 440"></polygon>
                    <polygon id="Triangle-Copy-144" points="484 352 528 440 440 440"></polygon>
                    <polygon id="Triangle-Copy-142" points="572 352 616 440 528 440"></polygon>
                    <polygon id="Triangle-Copy-139" points="704 352 748 440 660 440"></polygon>
                    <polygon id="Triangle-Copy-138" points="748 352 792 440 704 440"></polygon>
                    <polygon id="Triangle-Copy-137" points="792 352 836 440 748 440"></polygon>
                    <polygon id="Triangle-Copy-183" points="132 440 176 528 88 528"></polygon>
                    <polygon id="Triangle-Copy-182" points="176 440 220 528 132 528"></polygon>
                    <polygon id="Triangle-Copy-179" points="308 440 352 528 264 528"></polygon>
                    <polygon id="Triangle-Copy-178" points="352 440 396 528 308 528"></polygon>
                    <polygon id="Triangle-Copy-177" points="396 440 440 528 352 528"></polygon>
                    <polygon id="Triangle-Copy-176" points="440 440 484 528 396 528"></polygon>
                    <polygon id="Triangle-Copy-175" points="484 440 528 528 440 528"></polygon>
                    <polygon id="Triangle-Copy-174" points="528 440 572 528 484 528"></polygon>
                    <polygon id="Triangle-Copy-173" points="572 440 616 528 528 528"></polygon>
                    <polygon id="Triangle-Copy-169" points="748 440 792 528 704 528"></polygon>
                    <polygon id="Triangle-Copy-168" points="792 440 836 528 748 528"></polygon>
                    <polygon id="Triangle-Copy-167" points="836 440 880 528 792 528"></polygon>
                    <polygon id="Triangle-Copy-165" points="924 440 968 528 880 528"></polygon>
                    <polygon id="Triangle-Copy-215" points="88 528 132 616 44 616"></polygon>
                    <polygon id="Triangle-Copy-213" points="176 528 220 616 132 616"></polygon>
                    <polygon id="Triangle-Copy-212" points="220 528 264 616 176 616"></polygon>
                    <polygon id="Triangle-Copy-211" points="264 528 308 616 220 616"></polygon>
                    <polygon id="Triangle-Copy-210" points="308 528 352 616 264 616"></polygon>
                    <polygon id="Triangle-Copy-209" points="352 528 396 616 308 616"></polygon>
                    <polygon id="Triangle-Copy-208" points="396 528 440 616 352 616"></polygon>
                    <polygon id="Triangle-Copy-207" points="440 528 484 616 396 616"></polygon>
                    <polygon id="Triangle-Copy-206" points="484 528 528 616 440 616"></polygon>
                    <polygon id="Triangle-Copy-203" points="616 528 660 616 572 616"></polygon>
                    <polygon id="Triangle-Copy-202" points="660 528 704 616 616 616"></polygon>
                    <polygon id="Triangle-Copy-201" points="704 528 748 616 660 616"></polygon>
                    <polygon id="Triangle-Copy-200" points="748 528 792 616 704 616"></polygon>
                    <polygon id="Triangle-Copy-199" points="792 528 836 616 748 616"></polygon>
                    <polygon id="Triangle-Copy-198" points="836 528 880 616 792 616"></polygon>
                    <polygon id="Triangle-Copy-197" points="880 528 924 616 836 616"></polygon>
                    <polygon id="Triangle-Copy-196" points="924 528 968 616 880 616"></polygon>
                </g>
            </g>
            <g id="path" opacity="0.156000182" mask="url(#mask-2)" stroke="#FFFFFF">
                <g transform="translate(-306.000000, 1.000000)">
                    <polygon id="Triangle-Copy-5" points="264 0 308 88 220 88"></polygon>
                    <polygon id="Triangle-Copy-36" points="264 88 308 176 220 176"></polygon>
                    <polygon id="Triangle-Copy-8" points="396 0 440 88 352 88"></polygon>
                    <polygon id="Triangle-Copy-39" points="396 88 440 176 352 176"></polygon>
                    <polygon id="Triangle-Copy-9" points="440 0 484 88 396 88"></polygon>
                    <polygon id="Triangle-Copy-12" points="572 0 616 88 528 88"></polygon>
                    <polygon id="Triangle-Copy-13" points="616 0 660 88 572 88"></polygon>
                    <polygon id="Triangle-Copy-44" points="616 88 660 176 572 176"></polygon>
                    <polygon id="Triangle-Copy-14" points="660 0 704 88 616 88"></polygon>
                    <polygon id="Triangle-Copy-45" points="660 88 704 176 616 176"></polygon>
                    <polygon id="Triangle-Copy-46" points="704 88 748 176 660 176"></polygon>
                    <polygon id="Triangle-Copy-16" points="748 0 792 88 704 88"></polygon>
                    <polygon id="Triangle-Copy-48" points="792 88 836 176 748 176"></polygon>
                    <polygon id="Triangle-Copy-49" points="836 88 880 176 792 176"></polygon>
                    <polygon id="Triangle-Copy-19" points="880 0 924 88 836 88"></polygon>
                    <polygon id="Triangle-Copy-50" points="880 88 924 176 836 176"></polygon>
                    <polygon id="Triangle-Copy-21" points="968 0 1012 88 924 88"></polygon>
                    <polygon id="Triangle-Copy-52" points="968 88 1012 176 924 176"></polygon>
                    <polygon id="Triangle-Copy-53" points="1012 88 1056 176 968 176"></polygon>
                    <polygon id="Triangle-Copy-23" points="1056 0 1100 88 1012 88"></polygon>
                    <polygon id="Triangle-Copy-54" points="1056 88 1100 176 1012 176"></polygon>
                    <polygon id="Triangle-Copy-24" points="1100 0 1144 88 1056 88"></polygon>
                    <polygon id="Triangle-Copy-55" points="1100 88 1144 176 1056 176"></polygon>
                    <polygon id="Triangle-Copy-57" points="1188 88 1232 176 1144 176"></polygon>
                    <polygon id="Triangle-Copy-59" points="1276 88 1320 176 1232 176"></polygon>
                    <polygon id="Triangle-Copy-60" points="1320 88 1364 176 1276 176"></polygon>
                    <polygon id="Triangle-Copy-30" points="1364 0 1408 88 1320 88"></polygon>
                    <polygon id="Triangle-Copy-61" points="1364 88 1408 176 1320 176"></polygon>
                    <polygon id="Triangle-Copy-87" points="264 176 308 264 220 264"></polygon>
                    <polygon id="Triangle-Copy-86" points="308 176 352 264 264 264"></polygon>
                    <polygon id="Triangle-Copy-85" points="352 176 396 264 308 264"></polygon>
                    <polygon id="Triangle-Copy-84" points="396 176 440 264 352 264"></polygon>
                    <polygon id="Triangle-Copy-83" points="440 176 484 264 396 264"></polygon>
                    <polygon id="Triangle-Copy-82" points="484 176 528 264 440 264"></polygon>
                    <polygon id="Triangle-Copy-79" points="616 176 660 264 572 264"></polygon>
                    <polygon id="Triangle-Copy-78" points="660 176 704 264 616 264"></polygon>
                    <polygon id="Triangle-Copy-74" points="836 176 880 264 792 264"></polygon>
                    <polygon id="Triangle-Copy-72" points="924 176 968 264 880 264"></polygon>
                    <polygon id="Triangle-Copy-71" points="968 176 1012 264 924 264"></polygon>
                    <polygon id="Triangle-Copy-70" points="1012 176 1056 264 968 264"></polygon>
                    <polygon id="Triangle-Copy-68" points="1100 176 1144 264 1056 264"></polygon>
                    <polygon id="Triangle-Copy-67" points="1144 176 1188 264 1100 264"></polygon>
                    <polygon id="Triangle-Copy-66" points="1188 176 1232 264 1144 264"></polygon>
                    <polygon id="Triangle-Copy-64" points="1276 176 1320 264 1232 264"></polygon>
                    <polygon id="Triangle-Copy-63" points="1320 176 1364 264 1276 264"></polygon>
                    <polygon id="Triangle-Copy-117" points="308 264 352 352 264 352"></polygon>
                    <polygon id="Triangle-Copy-116" points="352 264 396 352 308 352"></polygon>
                    <polygon id="Triangle-Copy-113" points="484 264 528 352 440 352"></polygon>
                    <polygon id="Triangle-Copy-111" points="572 264 616 352 528 352"></polygon>
                    <polygon id="Triangle-Copy-109" points="660 264 704 352 616 352"></polygon>
                    <polygon id="Triangle-Copy-107" points="748 264 792 352 704 352"></polygon>
                    <polygon id="Triangle-Copy-106" points="792 264 836 352 748 352"></polygon>
                    <polygon id="Triangle-Copy-104" points="880 264 924 352 836 352"></polygon>
                    <polygon id="Triangle-Copy-103" points="924 264 968 352 880 352"></polygon>
                    <polygon id="Triangle-Copy-102" points="968 264 1012 352 924 352"></polygon>
                    <polygon id="Triangle-Copy-100" points="1056 264 1100 352 1012 352"></polygon>
                    <polygon id="Triangle-Copy-99" points="1100 264 1144 352 1056 352"></polygon>
                    <polygon id="Triangle-Copy-97" points="1188 264 1232 352 1144 352"></polygon>
                    <polygon id="Triangle-Copy-96" points="1232 264 1276 352 1188 352"></polygon>
                    <polygon id="Triangle-Copy-95" points="1276 264 1320 352 1232 352"></polygon>
                    <polygon id="Triangle-Copy-94" points="1320 264 1364 352 1276 352"></polygon>
                    <polygon id="Triangle-Copy-93" points="1364 264 1408 352 1320 352"></polygon>
                    <polygon id="Triangle-Copy-148" points="308 352 352 440 264 440"></polygon>
                    <polygon id="Triangle-Copy-147" points="352 352 396 440 308 440"></polygon>
                    <polygon id="Triangle-Copy-146" points="396 352 440 440 352 440"></polygon>
                    <polygon id="Triangle-Copy-145" points="440 352 484 440 396 440"></polygon>
                    <polygon id="Triangle-Copy-144" points="484 352 528 440 440 440"></polygon>
                    <polygon id="Triangle-Copy-142" points="572 352 616 440 528 440"></polygon>
                    <polygon id="Triangle-Copy-139" points="704 352 748 440 660 440"></polygon>
                    <polygon id="Triangle-Copy-138" points="748 352 792 440 704 440"></polygon>
                    <polygon id="Triangle-Copy-137" points="792 352 836 440 748 440"></polygon>
                    <polygon id="Triangle-Copy-132" points="1012 352 1056 440 968 440"></polygon>
                    <polygon id="Triangle-Copy-131" points="1056 352 1100 440 1012 440"></polygon>
                    <polygon id="Triangle-Copy-130" points="1100 352 1144 440 1056 440"></polygon>
                    <polygon id="Triangle-Copy-128" points="1188 352 1232 440 1144 440"></polygon>
                    <polygon id="Triangle-Copy-127" points="1232 352 1276 440 1188 440"></polygon>
                    <polygon id="Triangle-Copy-126" points="1276 352 1320 440 1232 440"></polygon>
                    <polygon id="Triangle-Copy-125" points="1320 352 1364 440 1276 440"></polygon>
                    <polygon id="Triangle-Copy-124" points="1364 352 1408 440 1320 440"></polygon>
                    <polygon id="Triangle-Copy-179" points="308 440 352 528 264 528"></polygon>
                    <polygon id="Triangle-Copy-178" points="352 440 396 528 308 528"></polygon>
                    <polygon id="Triangle-Copy-177" points="396 440 440 528 352 528"></polygon>
                    <polygon id="Triangle-Copy-176" points="440 440 484 528 396 528"></polygon>
                    <polygon id="Triangle-Copy-175" points="484 440 528 528 440 528"></polygon>
                    <polygon id="Triangle-Copy-174" points="528 440 572 528 484 528"></polygon>
                    <polygon id="Triangle-Copy-173" points="572 440 616 528 528 528"></polygon>
                    <polygon id="Triangle-Copy-169" points="748 440 792 528 704 528"></polygon>
                    <polygon id="Triangle-Copy-168" points="792 440 836 528 748 528"></polygon>
                    <polygon id="Triangle-Copy-167" points="836 440 880 528 792 528"></polygon>
                    <polygon id="Triangle-Copy-165" points="924 440 968 528 880 528"></polygon>
                    <polygon id="Triangle-Copy-164" points="968 440 1012 528 924 528"></polygon>
                    <polygon id="Triangle-Copy-162" points="1056 440 1100 528 1012 528"></polygon>
                    <polygon id="Triangle-Copy-159" points="1188 440 1232 528 1144 528"></polygon>
                    <polygon id="Triangle-Copy-158" points="1232 440 1276 528 1188 528"></polygon>
                    <polygon id="Triangle-Copy-156" points="1320 440 1364 528 1276 528"></polygon>
                    <polygon id="Triangle-Copy-155" points="1364 440 1408 528 1320 528"></polygon>
                    <polygon id="Triangle-Copy-211" points="264 528 308 616 220 616"></polygon>
                    <polygon id="Triangle-Copy-210" points="308 528 352 616 264 616"></polygon>
                    <polygon id="Triangle-Copy-209" points="352 528 396 616 308 616"></polygon>
                    <polygon id="Triangle-Copy-208" points="396 528 440 616 352 616"></polygon>
                    <polygon id="Triangle-Copy-207" points="440 528 484 616 396 616"></polygon>
                    <polygon id="Triangle-Copy-206" points="484 528 528 616 440 616"></polygon>
                    <polygon id="Triangle-Copy-203" points="616 528 660 616 572 616"></polygon>
                    <polygon id="Triangle-Copy-202" points="660 528 704 616 616 616"></polygon>
                    <polygon id="Triangle-Copy-201" points="704 528 748 616 660 616"></polygon>
                    <polygon id="Triangle-Copy-200" points="748 528 792 616 704 616"></polygon>
                    <polygon id="Triangle-Copy-199" points="792 528 836 616 748 616"></polygon>
                    <polygon id="Triangle-Copy-198" points="836 528 880 616 792 616"></polygon>
                    <polygon id="Triangle-Copy-197" points="880 528 924 616 836 616"></polygon>
                    <polygon id="Triangle-Copy-196" points="924 528 968 616 880 616"></polygon>
                    <polygon id="Triangle-Copy-195" points="968 528 1012 616 924 616"></polygon>
                    <polygon id="Triangle-Copy-194" points="1012 528 1056 616 968 616"></polygon>
                    <polygon id="Triangle-Copy-192" points="1100 528 1144 616 1056 616"></polygon>
                    <polygon id="Triangle-Copy-191" points="1144 528 1188 616 1100 616"></polygon>
                    <polygon id="Triangle-Copy-189" points="1232 528 1276 616 1188 616"></polygon>
                    <polygon id="Triangle-Copy-188" points="1276 528 1320 616 1232 616"></polygon>
                    <polygon id="Triangle-Copy-187" points="1320 528 1364 616 1276 616"></polygon>
                    <polygon id="Triangle-Copy-186" points="1364 528 1408 616 1320 616"></polygon>
                </g>
            </g>
            <g id="path" mask="url(#mask-2)" fill="#DE3423" fill-rule="nonzero">
                <g transform="translate(276.000000, -2150.000000)" id="Path">
                    <path d="M1070.90179,2371.38532 C1400.34789,2343.94277 1702.93256,2282.01669 1969.17621,2186.37548 C2117.70749,2133.07421 2254.38534,2070.36406 2380,1996.6769 L2067.13289,1310 C2023.68615,1332.73341 1978.65895,1353.89867 1932.82572,1373.49422 C1695.03027,1475.3939 1426.4191,1538.88812 1134.89604,1562.4103 C1043.25171,1570.25103 954.766707,1572.60325 871.813301,1572.60325 C834.682063,1572.60325 798.339472,1571.81918 763.577338,1571.0351 L397,2378.42629 C577.129337,2389.40331 812.560417,2392.5396 1070.90179,2371.38532 Z"></path>
                    <path d="M2071.61923,2554.04351 C1778.50284,2658.26036 1447.45124,2725.65329 1088.74917,2755.43849 C942.581375,2767.1958 803.524559,2771.88305 677.109127,2771.88305 C513.559825,2771.88305 370.553168,2764.06052 257.570987,2755.43849 L0,3322 L2951,3322 L2510.13209,2355 C2375.02511,2431.79878 2228.06388,2498.40789 2071.61923,2554.04351 Z"></path>
                </g>
            </g>
        </g>
    </g>
</svg>