<?xml version="1.0" encoding="UTF-8"?>
<svg width="750px" height="138px" viewBox="0 0 750 138" version="1.1" xmlns="http://www.w3.org/2000/svg" xmlns:xlink="http://www.w3.org/1999/xlink">
    <title>background-mentors</title>
    <g id="Page-1" stroke="none" stroke-width="1" fill="none" fill-rule="evenodd">
        <g id="sb-logo-horizontal-condensed" transform="translate(-40.095905, -753.000000)"></g>
        <g id="Group-7" fill-rule="nonzero">
            <g id="pattern" transform="translate(-35.000000, -756.000000)">
                <path d="M0,528.080411 C0,528.080411 321.734401,771.258645 1051,888 L869.660181,488.948579 C869.660181,488.948579 599.272647,496.714065 150.792947,195 L0,528.080411 Z" id="Path" fill="#0D1D31" opacity="0.0465570494"></path>
                <path d="M420.328576,839.54825 C556.393304,828.209406 681.363975,802.622495 791.325424,763.105005 C852.670414,741.081731 909.119815,715.170853 961,684.724437 L831.782569,401 C813.838605,410.393098 795.241895,419.138262 776.312286,427.234845 C678.100249,469.33824 567.160988,495.573085 446.75888,505.292094 C408.9088,508.531763 372.363557,509.503664 338.102922,509.503664 C322.767327,509.503664 307.757452,509.179697 293.400322,508.85573 L142,842.457474 C216.395324,846.993011 313.630853,848.288879 420.328576,839.54825 Z" id="Path" fill="#DE3423"></path>
            </g>
        </g>
    </g>
</svg>