<?xml version="1.0" encoding="UTF-8"?>
<svg width="112px" height="48px" viewBox="0 0 112 48" version="1.1" xmlns="http://www.w3.org/2000/svg" xmlns:xlink="http://www.w3.org/1999/xlink">
    <title>navbar-brand</title>
    <g id="Page-1" stroke="none" stroke-width="1" fill="none" fill-rule="evenodd">
        <g id="navbar-brand" transform="translate(0.000000, 0.000000)" fill-rule="nonzero">
            <path d="M51.4135993,10.3193084 C51.3578362,10.2270893 51.1626653,10.0887608 50.8280865,9.90432277 C50.4935078,9.70144092 50.0752844,9.48933718 49.5734163,9.26801153 C49.0715482,9.04668588 48.5232108,8.85302594 47.9284041,8.6870317 C47.3335975,8.52103746 46.7387908,8.43804035 46.1439842,8.43804035 C45.3633005,8.43804035 44.7592,8.57636888 44.3316827,8.85302594 C43.9041654,9.11123919 43.6904068,9.51700288 43.6904068,10.070317 C43.6904068,10.5129683 43.8484023,10.8634006 44.1643933,11.1216138 C44.4989721,11.3798271 44.9729586,11.6103746 45.586353,11.8132565 C46.1997473,11.9976945 46.9525495,12.2190202 47.8447594,12.4772334 C49.1087236,12.8092219 50.2053983,13.2149856 51.1347837,13.6945245 C52.0641691,14.1556196 52.770502,14.7550432 53.2537824,15.4927954 C53.7556505,16.2305476 54.0065845,17.2080692 54.0065845,18.4253602 C54.0065845,19.5319885 53.8021197,20.4726225 53.3931902,21.2472622 C52.9842606,22.0034582 52.4266294,22.6213256 51.7202965,23.1008646 C51.0325513,23.5619597 50.2425737,23.90317 49.3503638,24.1244957 C48.4581538,24.3273775 47.5380623,24.4288184 46.5900892,24.4288184 C45.6235284,24.4288184 44.629086,24.3365994 43.6067621,24.1521614 C42.6030259,23.9492795 41.6364651,23.6726225 40.7070797,23.3221902 C39.7776943,22.9533141 38.9226598,22.5106628 38.1419761,21.9942363 L40.1494485,18.0380403 C40.2237993,18.1302594 40.4654395,18.3054755 40.8743691,18.5636888 C41.2832987,18.8034582 41.7851668,19.0616715 42.3799734,19.3383285 C42.9933678,19.5965418 43.6718191,19.8270893 44.4153274,20.0299712 C45.1588357,20.232853 45.9116379,20.3342939 46.6737339,20.3342939 C47.491593,20.3342939 48.0956935,20.2051873 48.4860354,19.9469741 C48.8949649,19.6887608 49.0994297,19.3291066 49.0994297,18.8680115 C49.0994297,18.3700288 48.8856711,17.9827089 48.4581538,17.7060519 C48.0492242,17.4293948 47.4822992,17.1804035 46.7573786,16.9590778 C46.0510457,16.7377522 45.2331865,16.4887608 44.3038011,16.2121037 C43.0956001,15.8432277 42.0918639,15.4282421 41.2925925,14.967147 C40.5119088,14.5060519 39.926396,13.9435159 39.5360541,13.2795389 C39.1643,12.615562 38.9784229,11.7855908 38.9784229,10.7896254 C38.9784229,9.40634006 39.3037078,8.2443804 39.9542776,7.3037464 C40.623435,6.34466859 41.515645,5.62536023 42.6309075,5.14582133 C43.7461699,4.64783862 44.9636648,4.39884726 46.283392,4.39884726 C47.2127774,4.39884726 48.1049874,4.50951009 48.9600219,4.73083573 C49.8336442,4.95216138 50.6422094,5.22881844 51.3857178,5.56080692 C52.1478138,5.89279539 52.8262651,6.22478386 53.4210717,6.55677233 L51.4135993,10.3193084 Z M63.3255318,24.4841499 C62.0801553,24.4841499 60.9741867,24.281268 60.0076259,23.8755043 C59.0410651,23.4697406 58.2139122,22.9164265 57.526167,22.215562 C56.8570095,21.5146974 56.3458475,20.7123919 55.9926811,19.8086455 C55.6395146,18.9048991 55.4629314,17.9458213 55.4629314,16.9314121 C55.4629314,15.6034582 55.7696286,14.3677233 56.383023,13.2242075 C57.015005,12.0806916 57.9165088,11.1585014 59.0875344,10.4576369 C60.25856,9.75677233 61.6712258,9.40634006 63.3255318,9.40634006 C64.9984254,9.40634006 66.4110912,9.76599424 67.5635291,10.4853026 C68.7345547,11.1861671 69.6081769,12.1083573 70.1843959,13.2518732 L65.8348723,14.5521614 C65.5560567,14.1095101 65.1935964,13.7682997 64.7474914,13.5285303 C64.3199741,13.2887608 63.8366937,13.1688761 63.2976502,13.1688761 C62.6842558,13.1688761 62.1266246,13.3256484 61.6247565,13.6391931 C61.1414761,13.9527378 60.7511342,14.3861671 60.4537309,14.9394813 C60.1749153,15.4927954 60.0355075,16.1567723 60.0355075,16.9314121 C60.0355075,17.6876081 60.1842092,18.351585 60.4816125,18.9233429 C60.7790158,19.4951009 61.1693577,19.9469741 61.6526381,20.2789625 C62.1359185,20.5925072 62.6842558,20.7492795 63.2976502,20.7492795 C63.6694043,20.7492795 64.0132769,20.6939481 64.329268,20.5832853 C64.6638467,20.4541787 64.96125,20.2789625 65.2214779,20.0576369 C65.5002935,19.8363112 65.7140522,19.5873199 65.8627538,19.3106628 L70.2122774,20.6386167 C69.859111,21.3763689 69.347949,22.0403458 68.6787916,22.6305476 C68.0282218,23.2023055 67.2568319,23.6541787 66.3646219,23.9861671 C65.472412,24.3181556 64.4593819,24.4841499 63.3255318,24.4841499 Z M71.3084875,19.8639769 C71.3084875,18.9048991 71.5780092,18.0657061 72.1170528,17.3463977 C72.6560963,16.6270893 73.3996046,16.0645533 74.3475777,15.6587896 C75.2955508,15.2345821 76.3829317,15.0224784 77.6097204,15.0224784 C78.204527,15.0224784 78.7900398,15.0778098 79.3662587,15.1884726 C79.9424777,15.2806916 80.4443458,15.4190202 80.8718631,15.6034582 L80.8718631,14.967147 C80.8718631,14.1740634 80.6302229,13.5654179 80.1469425,13.1412104 C79.6636621,12.7170029 78.9294476,12.5048991 77.9442991,12.5048991 C77.12644,12.5048991 76.3550501,12.6432277 75.6301295,12.9198847 C74.9237966,13.1965418 74.1709945,13.5930836 73.371723,14.1095101 L72.0334081,11.2876081 C72.9999689,10.6605187 74.0037051,10.1902017 75.0446167,9.87665706 C76.1041161,9.56311239 77.2193785,9.40634006 78.3904041,9.40634006 C80.5837536,9.40634006 82.2845288,9.93198847 83.4927298,10.9832853 C84.7195185,12.0161383 85.3329129,13.5193084 85.3329129,15.4927954 L85.3329129,19.2829971 C85.3329129,19.7256484 85.3979699,20.0391931 85.5280838,20.2236311 C85.6767855,20.3896254 85.9277195,20.4910663 86.280886,20.5279539 L86.280886,24.2074928 C85.9091318,24.281268 85.5559654,24.3365994 85.2213867,24.373487 C84.9053956,24.4103746 84.62658,24.4288184 84.3849398,24.4288184 C83.548493,24.4288184 82.9072171,24.2628242 82.4611121,23.9308357 C82.0335948,23.5988473 81.764073,23.1469741 81.6525468,22.5752161 L81.5689021,21.9389049 C80.9183323,22.7688761 80.1376486,23.4051873 79.2268509,23.8478386 C78.334641,24.2720461 77.3959617,24.4841499 76.4108132,24.4841499 C75.4442524,24.4841499 74.5706302,24.281268 73.7899465,23.8755043 C73.0278504,23.4697406 72.4237499,22.9164265 71.977645,22.215562 C71.53154,21.5146974 71.3084875,20.7308357 71.3084875,19.8639769 Z M80.174824,20.4172911 C80.3792888,20.2512968 80.5465782,20.0668588 80.6766921,19.8639769 C80.8068061,19.6610951 80.8718631,19.4674352 80.8718631,19.2829971 L80.8718631,17.9827089 C80.5001089,17.8351585 80.0818855,17.7244957 79.6171928,17.6507205 C79.1710878,17.5585014 78.7528644,17.5123919 78.3625225,17.5123919 C77.5446634,17.5123919 76.8662121,17.69683 76.3271685,18.0657061 C75.788125,18.4161383 75.5186033,18.8864553 75.5186033,19.4766571 C75.5186033,19.8086455 75.6115418,20.1129683 75.7974189,20.3896254 C75.983296,20.6662824 76.23423,20.8876081 76.550221,21.0536023 C76.8847998,21.2195965 77.2751416,21.3025937 77.7212466,21.3025937 C78.1673516,21.3025937 78.6134566,21.2195965 79.0595616,21.0536023 C79.5056666,20.8876081 79.8774207,20.6755043 80.174824,20.4172911 Z M88.5095521,4.01152738 L92.970602,4.01152738 L92.970602,19.0340058 C92.970602,19.6426513 93.0821282,20.0760807 93.3051807,20.3342939 C93.5282332,20.5925072 93.8442242,20.7216138 94.2531538,20.7216138 C94.5319694,20.7216138 94.810785,20.6847262 95.0896006,20.610951 C95.387004,20.518732 95.6472319,20.4172911 95.8702844,20.3066282 L96.4557971,23.626513 C95.8981659,23.8847262 95.25689,24.0876081 94.5319694,24.2351585 C93.8070488,24.3827089 93.1285975,24.4564841 92.4966154,24.4564841 C91.2326513,24.4564841 90.2475028,24.1244957 89.5411699,23.4605187 C88.8534247,22.778098 88.5095521,21.8190202 88.5095521,20.5832853 L88.5095521,4.01152738 Z M96.9843851,19.8639769 C96.9843851,18.9048991 97.2539068,18.0657061 97.7929504,17.3463977 C98.3319939,16.6270893 99.0755022,16.0645533 100.023475,15.6587896 C100.971448,15.2345821 102.058829,15.0224784 103.285618,15.0224784 C103.880425,15.0224784 104.465937,15.0778098 105.042156,15.1884726 C105.618375,15.2806916 106.120243,15.4190202 106.547761,15.6034582 L106.547761,14.967147 C106.547761,14.1740634 106.30612,13.5654179 105.82284,13.1412104 C105.33956,12.7170029 104.605345,12.5048991 103.620197,12.5048991 C102.802338,12.5048991 102.030948,12.6432277 101.306027,12.9198847 C100.599694,13.1965418 99.8468921,13.5930836 99.0476206,14.1095101 L97.7093057,11.2876081 C98.6758665,10.6605187 99.6796027,10.1902017 100.720514,9.87665706 C101.780014,9.56311239 102.895276,9.40634006 104.066302,9.40634006 C106.259651,9.40634006 107.960426,9.93198847 109.168627,10.9832853 C110.395416,12.0161383 111.00881,13.5193084 111.00881,15.4927954 L111.00881,19.2829971 C111.00881,19.7256484 111.073867,20.0391931 111.203981,20.2236311 C111.352683,20.3896254 111.603617,20.4910663 111.956784,20.5279539 L111.956784,24.2074928 C111.585029,24.281268 111.231863,24.3365994 110.897284,24.373487 C110.581293,24.4103746 110.302478,24.4288184 110.060837,24.4288184 C109.224391,24.4288184 108.583115,24.2628242 108.13701,23.9308357 C107.709492,23.5988473 107.439971,23.1469741 107.328444,22.5752161 L107.2448,21.9389049 C106.59423,22.7688761 105.813546,23.4051873 104.902749,23.8478386 C104.010539,24.2720461 103.071859,24.4841499 102.086711,24.4841499 C101.12015,24.4841499 100.246528,24.281268 99.465844,23.8755043 C98.703748,23.4697406 98.0996475,22.9164265 97.6535426,22.215562 C97.2074376,21.5146974 96.9843851,20.7308357 96.9843851,19.8639769 Z M105.850722,20.4172911 C106.055186,20.2512968 106.222476,20.0668588 106.35259,19.8639769 C106.482704,19.6610951 106.547761,19.4674352 106.547761,19.2829971 L106.547761,17.9827089 C106.176007,17.8351585 105.757783,17.7244957 105.29309,17.6507205 C104.846985,17.5585014 104.428762,17.5123919 104.03842,17.5123919 C103.220561,17.5123919 102.54211,17.69683 102.003066,18.0657061 C101.464023,18.4161383 101.194501,18.8864553 101.194501,19.4766571 C101.194501,19.8086455 101.287439,20.1129683 101.473316,20.3896254 C101.659194,20.6662824 101.910128,20.8876081 102.226119,21.0536023 C102.560697,21.2195965 102.951039,21.3025937 103.397144,21.3025937 C103.843249,21.3025937 104.289354,21.2195965 104.735459,21.0536023 C105.181564,20.8876081 105.553318,20.6755043 105.850722,20.4172911 Z" id="path" fill="#0D1D31"></path>
            <path d="M57.9471785,48 C56.8319161,48 55.8560614,47.7694524 55.0196146,47.3083573 C54.1831678,46.8288184 53.5233041,46.1648415 53.0400237,45.3164265 L53.0400237,47.7233429 L49.1644867,47.7233429 L49.1644867,27.5273775 L53.6255365,27.5273775 L53.6255365,35.578098 C54.1088169,34.729683 54.7500928,34.074928 55.5493643,33.6138329 C56.3672234,33.1527378 57.3244903,32.9221902 58.4211651,32.9221902 C59.3505505,32.9221902 60.1962912,33.125072 60.9583872,33.5308357 C61.7390709,33.9181556 62.4082284,34.4622478 62.9658596,35.1631124 C63.5420785,35.8455331 63.9881835,36.6478386 64.3041746,37.5700288 C64.6201656,38.4737752 64.7781611,39.4605187 64.7781611,40.5302594 C64.7781611,41.5815562 64.6015779,42.5590778 64.2484114,43.4628242 C63.9138327,44.3665706 63.4398462,45.1596542 62.8264518,45.8420749 C62.2130574,46.5244957 61.4881369,47.059366 60.65169,47.4466859 C59.8338309,47.815562 58.9323271,48 57.9471785,48 Z M56.6925083,44.2651297 C57.1943764,44.2651297 57.6590691,44.1729107 58.0865864,43.9884726 C58.5326913,43.7855908 58.9137393,43.5181556 59.2297304,43.1861671 C59.5457214,42.8541787 59.7873616,42.4668588 59.954651,42.0242075 C60.1219403,41.5631124 60.205585,41.0651297 60.205585,40.5302594 C60.205585,39.8478386 60.0661772,39.2115274 59.7873616,38.6213256 C59.508546,38.0311239 59.1182041,37.5608069 58.616336,37.2103746 C58.1330556,36.8599424 57.5661305,36.6847262 56.9155608,36.6847262 C56.4508681,36.6847262 56.0047631,36.795389 55.5772458,37.0167147 C55.1497285,37.2380403 54.7686805,37.5423631 54.4341018,37.929683 C54.0995231,38.2985591 53.8300013,38.7227666 53.6255365,39.2023055 L53.6255365,42.2455331 C53.7742382,42.5590778 53.9601153,42.8449568 54.1831678,43.10317 C54.4062202,43.3429395 54.6478604,43.5458213 54.9080883,43.7118156 C55.186904,43.8778098 55.4750134,44.0161383 55.7724168,44.1268012 C56.0884078,44.2190202 56.395105,44.2651297 56.6925083,44.2651297 Z M66.0788359,43.3798271 C66.0788359,42.4207493 66.3483577,41.5815562 66.8874012,40.8622478 C67.4264447,40.1429395 68.1699531,39.5804035 69.1179261,39.1746398 C70.0658992,38.7504323 71.1532801,38.5383285 72.3800688,38.5383285 C72.9748755,38.5383285 73.5603883,38.5936599 74.1366072,38.7043228 C74.7128261,38.7965418 75.2146942,38.9348703 75.6422115,39.1193084 L75.6422115,38.4829971 C75.6422115,37.6899135 75.4005713,37.081268 74.9172909,36.6570605 C74.4340105,36.232853 73.6997961,36.0207493 72.7146476,36.0207493 C71.8967884,36.0207493 71.1253986,36.1590778 70.400478,36.4357349 C69.6941451,36.7123919 68.9413429,37.1089337 68.1420715,37.6253602 L66.8037565,34.8034582 C67.7703173,34.1763689 68.7740536,33.7060519 69.8149652,33.3925072 C70.8744645,33.0789625 71.989727,32.9221902 73.1607526,32.9221902 C75.3541021,32.9221902 77.0548773,33.4478386 78.2630783,34.4991354 C79.489867,35.5319885 80.1032614,37.0351585 80.1032614,39.0086455 L80.1032614,42.7988473 C80.1032614,43.2414986 80.1683183,43.5550432 80.2984323,43.7394813 C80.4471339,43.9054755 80.698068,44.0069164 81.0512344,44.043804 L81.0512344,47.7233429 C80.6794803,47.7971182 80.3263138,47.8524496 79.9917351,47.8893372 C79.6757441,47.9262248 79.3969285,47.9446686 79.1552883,47.9446686 C78.3188414,47.9446686 77.6775655,47.7786744 77.2314605,47.4466859 C76.8039432,47.1146974 76.5344215,46.6628242 76.4228952,46.0910663 L76.3392506,45.454755 C75.6886808,46.2847262 74.9079971,46.9210375 73.9971994,47.3636888 C73.1049894,47.7878963 72.1663102,48 71.1811617,48 C70.2146009,48 69.3409786,47.7971182 68.5602949,47.3913545 C67.7981989,46.9855908 67.1940984,46.4322767 66.7479934,45.7314121 C66.3018884,45.0305476 66.0788359,44.2466859 66.0788359,43.3798271 Z M74.9451725,43.9331412 C75.1496373,43.767147 75.3169266,43.5827089 75.4470406,43.3798271 C75.5771545,43.1769452 75.6422115,42.9832853 75.6422115,42.7988473 L75.6422115,41.4985591 C75.2704574,41.3510086 74.8522339,41.2403458 74.3875413,41.1665706 C73.9414363,41.0743516 73.5232129,41.0282421 73.132871,41.0282421 C72.3150119,41.0282421 71.6365605,41.2126801 71.097517,41.5815562 C70.5584735,41.9319885 70.2889517,42.4023055 70.2889517,42.9925072 C70.2889517,43.3244957 70.3818903,43.6288184 70.5677673,43.9054755 C70.7536444,44.1821326 71.0045785,44.4034582 71.3205695,44.5694524 C71.6551482,44.7354467 72.0454901,44.8184438 72.4915951,44.8184438 C72.9377001,44.8184438 73.383805,44.7354467 73.82991,44.5694524 C74.276015,44.4034582 74.6477692,44.1913545 74.9451725,43.9331412 Z M88.9398576,48 C87.6944812,48 86.4769863,47.7971182 85.287373,47.3913545 C84.0977597,46.9855908 83.0940235,46.3861671 82.2761644,45.5930836 L83.8096503,42.7988473 C84.7018602,43.4443804 85.5661886,43.9331412 86.4026355,44.2651297 C87.25767,44.5971182 88.0569415,44.7631124 88.8004498,44.7631124 C89.3766687,44.7631124 89.8227737,44.6708934 90.1387647,44.4864553 C90.4547557,44.3020173 90.6127513,44.0161383 90.6127513,43.6288184 C90.6127513,43.3521614 90.5198127,43.1400576 90.3339356,42.9925072 C90.1480586,42.826513 89.8599491,42.6789625 89.4696072,42.5498559 C89.0978531,42.4207493 88.6331604,42.2824207 88.0755292,42.1348703 C86.9602667,41.7659942 86.0308813,41.4063401 85.287373,41.0559078 C84.5438647,40.7054755 83.9862335,40.281268 83.6144793,39.7832853 C83.2427252,39.2668588 83.0568481,38.6028818 83.0568481,37.7913545 C83.0568481,36.8138329 83.2984883,35.9654179 83.7817687,35.2461095 C84.2836368,34.5083573 84.9899697,33.9365994 85.9007674,33.5308357 C86.811565,33.125072 87.8989459,32.9221902 89.1629101,32.9221902 C90.1666463,32.9221902 91.1425009,33.0789625 92.090474,33.3925072 C93.0570348,33.7060519 93.9585386,34.2317003 94.7949855,34.9694524 L93.0663287,37.7360231 C92.2298818,37.1642651 91.4863735,36.7492795 90.8358037,36.4910663 C90.185234,36.232853 89.5532519,36.1037464 88.9398576,36.1037464 C88.6238665,36.1037464 88.3357571,36.140634 88.0755292,36.2144092 C87.8153013,36.2881844 87.6015426,36.4172911 87.4342532,36.6017291 C87.2855516,36.7677233 87.2112008,36.989049 87.2112008,37.2657061 C87.2112008,37.5423631 87.2855516,37.7636888 87.4342532,37.929683 C87.6015426,38.0956772 87.8524767,38.2432277 88.1870554,38.3723343 C88.5402218,38.4829971 88.977033,38.6213256 89.4974888,38.7873199 C90.7056898,39.1377522 91.709426,39.4974063 92.5086974,39.8662824 C93.3079689,40.2167147 93.9027755,40.659366 94.2931174,41.1942363 C94.7020469,41.7106628 94.9065117,42.4023055 94.9065117,43.2691643 C94.9065117,44.7446686 94.3674682,45.9066282 93.2893811,46.7550432 C92.2298818,47.5850144 90.7800406,48 88.9398576,48 Z M104.193163,48 C102.947786,48 101.841818,47.8063401 100.875257,47.4190202 C99.9086962,47.0132565 99.0815432,46.4691643 98.393798,45.7867435 C97.7246405,45.1043228 97.2134786,44.3204611 96.8603121,43.4351585 C96.5071457,42.5314121 96.3305625,41.5907781 96.3305625,40.6132565 C96.3305625,39.2115274 96.6372596,37.9389049 97.250654,36.795389 C97.8826361,35.6334294 98.7841399,34.7020173 99.9551655,34.0011527 C101.126191,33.2818444 102.538857,32.9221902 104.193163,32.9221902 C105.847469,32.9221902 107.250841,33.2726225 108.403279,33.973487 C109.574304,34.6743516 110.466514,35.5965418 111.079908,36.7400576 C111.693303,37.8651297 112,39.0916427 112,40.4195965 C112,40.6778098 111.981412,40.9360231 111.944237,41.1942363 C111.925649,41.4340058 111.907061,41.6461095 111.888474,41.8305476 L101.070428,41.8305476 C101.126191,42.4760807 101.302774,43.0201729 101.600178,43.4628242 C101.916169,43.9054755 102.315804,44.2466859 102.799085,44.4864553 C103.282365,44.707781 103.793527,44.8184438 104.332571,44.8184438 C105.001728,44.8184438 105.624416,44.6616715 106.200635,44.3481268 C106.795442,44.0345821 107.204371,43.6103746 107.427424,43.0755043 L111.219316,44.1268012 C110.847562,44.8829971 110.317812,45.556196 109.630067,46.1463977 C108.96091,46.7181556 108.161638,47.1700288 107.232253,47.5020173 C106.321455,47.8340058 105.308425,48 104.193163,48 Z M100.958902,39.1193084 L107.315898,39.1193084 C107.241547,38.5106628 107.064964,37.9850144 106.786148,37.5423631 C106.507332,37.081268 106.135578,36.7308357 105.670886,36.4910663 C105.206193,36.232853 104.695031,36.1037464 104.1374,36.1037464 C103.561181,36.1037464 103.040725,36.232853 102.576032,36.4910663 C102.129927,36.7308357 101.767467,37.081268 101.488651,37.5423631 C101.209836,37.9850144 101.033252,38.5106628 100.958902,39.1193084 Z" id="path" fill="#0D1D31"></path>
            <path d="M34.8995828,29.2795389 C34.8995828,29.2795389 18.5458388,25.5017867 13.2913495,18.4081153 L17.758812,8.53025937 C17.758812,8.53025937 22.5387805,17.5300749 30.3163188,19.1590778 L34.8995828,29.2795389 Z" id="path" fill="#0D1D31"></path>
            <path d="M5.8562664,34.9113545 C5.8562664,34.9113545 17.3076187,43.5677233 43.2640512,47.7233429 L36.8097021,33.5183862 C36.8097021,33.5183862 27.1859165,33.7948127 11.223374,23.054755 L5.8562664,34.9113545 Z" id="path" fill="#0D1D31"></path>
            <path d="M15.7260371,34.7582709 C20.5692967,34.3548127 25.0176604,33.4443804 28.9317669,32.0382709 C31.1153579,31.2546398 33.1246891,30.3326801 34.9713778,29.2493372 L30.3718496,19.1538674 C29.7331295,19.4880922 29.0711747,19.7992622 28.3973703,20.0873545 C24.9014872,21.5854755 20.9525752,22.5189625 16.6668307,22.8647839 C15.3195472,22.9800576 14.0187097,23.0146398 12.7991934,23.0146398 C12.2533189,23.0146398 11.7190385,23.0031124 11.2079927,22.991585 L5.81885864,34.8617867 C8.46697964,35.02317 11.9281037,35.0692795 15.7260371,34.7582709 Z" id="path" fill="#DE3423"></path>
            <path d="M16.4112962,18.2664899 C20.1744008,17.9437925 23.6121974,17.1255331 26.6203855,15.8347896 C27.2477206,15.5582017 27.8632061,15.2700865 28.4554569,14.9589164 L21.6378343,0 L13.2870046,18.4047723 C14.2858383,18.393245 15.3311413,18.3471585 16.4112962,18.2664899 Z" id="path" fill="#DE3423"></path>
            <path d="M30.4531708,36.3946974 C26.1443078,37.9273775 21.2777904,38.9185014 16.0048063,39.3565418 C13.8561137,39.5294524 11.8119538,39.5983862 9.9536245,39.5983862 C7.54942069,39.5983862 5.44719743,39.4833429 3.78633928,39.3565418 L0,47.6887608 L43.3802244,47.6887608 L36.8993878,33.4674352 C34.9132912,34.5968876 32.7529349,35.5764841 30.4531708,36.3946974 Z" id="path" fill="#DE3423"></path>
        </g>
    </g>
</svg>