<?xml version="1.0" encoding="UTF-8"?>
<svg width="208px" height="46px" viewBox="0 0 208 46" version="1.1" xmlns="http://www.w3.org/2000/svg" xmlns:xlink="http://www.w3.org/1999/xlink">
    <title>scalacon</title>
    <g id="Page-1" stroke="none" stroke-width="1" fill="none" fill-rule="evenodd">
        <g id="Group-2-Copy-3" transform="translate(0.000000, 0.000000)"></g>
        <g id="scalacon" opacity="0.7" transform="translate(0.000000, 0.000000)" fill="#0D1D31" fill-rule="nonzero">
            <g id="Logo-ScalaCon" transform="translate(0.000000, 0.000000)">
                <g id="Scala">
                    <path d="M4.66512305,44.0917961 C2.71688428,43.564964 1.16198526,42.8988577 0,42.0923563 L2.26191657,37.675374 C3.39280385,38.419244 4.75117499,39.0164138 6.33788199,39.4654821 C7.92387899,39.9151108 9.48701402,40.1395749 11.026577,40.1395749 C14.5444828,40.1395749 16.3041457,39.2257454 16.3041457,37.3962651 C16.3041457,36.5289538 15.856562,35.9244981 14.9611106,35.5830381 C14.0659431,35.2422786 12.62862,34.9167917 10.6495673,34.6065773 C8.57622658,34.2970634 6.88713762,33.9403309 5.58400449,33.5370802 C4.28001929,33.1346701 3.14913201,32.4293317 2.19120061,31.4214852 C1.23255922,30.4146194 0.754019522,29.011789 0.754019522,27.2136944 C0.754019522,24.8582227 1.75100089,22.9753585 3.74624163,21.5645415 C5.74077238,20.154285 8.43479465,19.4489465 11.8275985,19.4489465 C13.5548854,19.4489465 15.2828823,19.6428655 17.0110212,20.030003 C18.7383082,20.4179812 20.1519173,20.9366866 21.2519906,21.5876605 L18.990074,26.0049231 C16.8534013,24.7653265 14.4501948,24.1450378 11.7804546,24.1450378 C10.0524577,24.1450378 8.74108848,24.4006074 7.84577905,24.9121669 C6.95046961,25.4237264 6.50288589,26.0978192 6.50288589,26.9347256 C6.50288589,27.8646682 6.98142557,28.5236286 7.940067,28.9107661 C8.89799837,29.2988844 10.3823234,29.6627628 12.3930422,30.0033822 C14.4030509,30.3137367 16.0523799,30.6704693 17.340887,31.0727392 C18.6285422,31.47613 19.7358575,32.1583495 20.6628329,33.1186971 C21.5890983,34.0798853 22.053012,35.4434836 22.053012,37.2103326 C22.053012,39.5351192 21.0317487,41.3950044 18.990074,42.7898483 C16.9476893,44.1846922 14.167473,44.8821843 10.6495673,44.8821843 C8.60718254,44.8821843 6.61250981,44.6183479 4.66512305,44.0917961" id="Fill-1"></path>
                    <path d="M31.0737581,43.2548897 C29.0262861,42.1701201 27.4281052,40.659121 26.280758,38.721612 C25.1327097,36.7846635 24.5590361,34.5913047 24.5590361,32.1423764 C24.5590361,29.6940085 25.1327097,27.5087764 26.280758,25.5863999 C27.4281052,23.664864 29.0182931,22.1617113 31.0504802,21.0763811 C33.0819662,19.9916116 35.4013407,19.4489465 38.0073417,19.4489465 C40.4575491,19.4489465 42.6061257,19.9452335 44.45223,20.9368267 C46.297493,21.9292606 47.6863131,23.3546496 48.6168675,25.2143948 L44.1497578,27.8182902 C43.4357157,26.6717299 42.5442851,25.8115645 41.4740634,25.2376538 C40.4038417,24.6644437 39.2323753,24.3776285 37.9607859,24.3776285 C35.7889315,24.3776285 33.9893829,25.0831071 32.5628414,26.4932235 C31.1355987,27.9039004 30.4222579,29.7870448 30.4222579,32.1423764 C30.4222579,34.4984085 31.1276057,36.3815529 32.5395635,37.7916694 C33.9508202,39.2024864 35.7576606,39.9072643 37.9607859,39.9072643 C39.2323753,39.9072643 40.4038417,39.6208695 41.4740634,39.0469588 C42.5442851,38.4737487 43.4357157,37.6135833 44.1497578,36.4664625 L48.6168675,39.0702179 C47.6550422,40.9301032 46.2509372,42.3643194 44.4056743,43.3711851 C42.5595699,44.3788915 40.4269794,44.8821843 38.0073417,44.8821843 C35.4319105,44.8821843 33.1212301,44.3403599 31.0737581,43.2548897" id="Fill-3"></path>
                    <polygon id="Fill-5" points="97.4303411 44.8817668 99.739759 39.8619906 89.0870856 39.8619906 89.0870856 19.9476375 83.2 19.9476375 83.2 39.8619906 83.2 44.8817668 83.2 44.8821843 89.0870856 44.8821843 89.0870856 44.8817668"></polygon>
                    <g id="Group" transform="translate(49.619277, 0.000000)">
                        <polygon id="Fill-7" points="19.8440012 23.438474 8.58069357 27.3405379 4.00963855 36.4044383 23.0554217 29.8061307"></polygon>
                        <polygon id="Fill-9" points="24.9630269 33.9109837 1.51333955 41.9227922 0 44.8821843 30.573494 44.8821843"></polygon>
                        <polygon id="Fill-11" points="18.5445783 20.6200005 15.2355023 13.9633462 10.5253012 23.438474"></polygon>
                        <polygon id="Fill-13" opacity="0.6" points="19.9238705 23.4525971 16.0028238 21.4719564 10.5253012 23.438474 14.5349398 25.3469165"></polygon>
                        <polygon id="Fill-15" opacity="0.6" points="24.9630269 33.9109837 19.0637707 31.1883941 4.00963855 36.4044383 11.229631 38.6150661"></polygon>
                        <path d="M15.2868171,0 C11.7249137,0 9.93149218,1.39498999 9.07345203,2.48172994 C1.59194185,3.41053932 0,6.06654512 0,6.06654512 C0,6.06654512 4.41517968,6.98167311 15.2868171,6.98167311 C26.1583143,6.98167311 30.573494,6.06654512 30.573494,6.06654512 C30.573494,6.06654512 28.9816922,3.41053932 21.5000419,2.48172994 C20.6420018,1.39498999 18.8487204,0 15.2868171,0 Z" id="Fill-17"></path>
                        <path d="M15.2866769,4.98690936 C26.1165612,4.98690936 30.573494,6.06654512 30.573494,6.06654512 C30.573494,6.06654512 27.1580067,10.4725097 15.2866769,10.4725097 C3.41548728,10.4725097 0,6.06654512 0,6.06654512 C0,6.06654512 4.45693277,4.98690936 15.2866769,4.98690936 Z" id="Fill-19"></path>
                        <path d="M15.286747,12.4672734 C19.7176692,12.4672734 20.5493976,10.157208 20.5493976,10.157208 C20.5493976,10.157208 19.0293817,9.47512779 15.286747,9.47512779 C11.5441123,9.47512779 10.0240964,10.1573413 10.0240964,10.1573413 C10.0240964,10.1573413 10.8558248,12.4672734 15.286747,12.4672734" id="Fill-21"></path>
                    </g>
                    <path d="M109.988755,39.8511651 L114.274699,31.0495254 L118.560643,39.8511651 L109.988755,39.8511651 Z M117.02029,25.4111272 L117.02029,25.4111272 L114.274699,19.9476375 L111.529108,25.4111272 L101.744578,44.8821843 L104.367941,44.8821843 L107.539026,44.8821843 L121.010372,44.8821843 L121.900192,44.8821843 L126.804819,44.8821843 L117.02029,25.4111272 Z" id="Fill-23"></path>
                </g>
                <g id="Con" transform="translate(127.306024, 19.448947)">
                    <path d="M6.68079661,24.2664237 C4.60379506,23.1560871 2.97118516,21.6159473 1.78268267,19.6460044 C0.594180188,17.6759201 0,15.4497348 0,12.966035 C0,10.4829006 0.594180188,8.25600858 1.78268267,6.2859243 C2.97118516,4.31598133 4.60379506,2.77584155 6.68079661,1.66550493 C8.75722968,0.555168308 11.0925951,0 13.685614,0 C15.8701961,0 17.8454437,0.382172889 19.61022,1.14609466 C21.3748541,1.91058177 22.857107,3.00862215 24.0578313,4.44134648 L20.3124071,7.87991313 C18.6073188,5.92212507 16.4949308,4.94280706 13.9736798,4.94280706 C12.4126955,4.94280706 11.0205431,5.28314445 9.79608573,5.9636779 C8.57162828,6.64407002 7.6171882,7.59328348 6.93276535,8.81103553 C6.24862679,10.028929 5.90641536,11.414023 5.90641536,12.966035 C5.90641536,14.5183297 6.24862679,15.9029997 6.93276535,17.1207518 C7.6171882,18.3386452 8.57162828,19.2877173 9.79608573,19.9683921 C11.0205431,20.6487842 12.4126955,20.9891217 13.9736798,20.9891217 C16.4949308,20.9891217 18.6073188,19.998638 20.3124071,18.0162575 L24.0578313,21.4546829 C22.857107,22.9115757 21.3687432,24.0219123 19.5921714,24.785834 C17.8150312,25.5497558 15.834099,25.9319287 13.649659,25.9319287 C11.0802312,25.9319287 8.75722968,25.3767604 6.68079661,24.2664237" id="Fill-25"></path>
                    <path d="M43.5523728,19.9683921 C44.729945,19.2878587 45.6547421,18.3386452 46.326067,17.1208932 C46.9973919,15.9029997 47.3329847,14.5183297 47.3329847,12.966035 C47.3329847,11.4141643 46.9973919,10.028929 46.326067,8.81117686 C45.6547421,7.59328348 44.729945,6.64421135 43.5523728,5.9636779 C42.3742428,5.28314445 41.0554344,4.94280706 39.595111,4.94280706 C38.1343693,4.94280706 36.8154215,5.28314445 35.6377099,5.9636779 C34.4595799,6.64421135 33.5354799,7.59328348 32.864155,8.81117686 C32.1928301,10.028929 31.8570979,11.4141643 31.8570979,12.966035 C31.8570979,14.5183297 32.1928301,15.9029997 32.864155,17.1208932 C33.5354799,18.3386452 34.4595799,19.2878587 35.6377099,19.9683921 C36.8154215,20.6487842 38.1343693,20.9891217 39.595111,20.9891217 C41.0554344,20.9891217 42.3742428,20.6487842 43.5523728,19.9683921 M32.6520916,24.2484741 C30.5907128,23.1265479 28.977581,21.580048 27.811581,19.6102464 C26.6454415,17.6401621 26.0626506,15.4255663 26.0626506,12.966035 C26.0626506,10.5069277 26.6454415,8.29176661 27.811581,6.32182366 C28.977581,4.3518807 30.5907128,2.80608748 32.6520916,1.68345462 C34.7131916,0.561245765 37.0273455,0 39.595111,0 C42.1621794,0 44.4710352,0.561245765 46.5202842,1.68345462 C48.5696726,2.80608748 50.1829436,4.3518807 51.3610736,6.32182366 C52.5385065,8.29176661 53.1277108,10.5069277 53.1277108,12.966035 C53.1277108,15.4255663 52.5385065,17.6401621 51.3610736,19.6102464 C50.1829436,21.580048 48.5696726,23.1265479 46.5202842,24.2484741 C44.4710352,25.3712483 42.1621794,25.9319287 39.595111,25.9319287 C37.0273455,25.9319287 34.7131916,25.3712483 32.6520916,24.2484741" id="Fill-27"></path>
                    <polygon id="Fill-29" points="80.6939759 0.498690936 80.6939759 25.4332378 75.9176874 25.4332378 63.3844129 10.2943656 63.3844129 25.4332378 57.6385542 25.4332378 57.6385542 0.498690936 62.4506949 0.498690936 74.9481172 15.6374225 74.9481172 0.498690936"></polygon>
                </g>
            </g>
        </g>
    </g>
</svg>