<?xml version="1.0" encoding="UTF-8"?>
<svg width="180px" height="60px" viewBox="0 0 180 60" version="1.1" xmlns="http://www.w3.org/2000/svg" xmlns:xlink="http://www.w3.org/1999/xlink">
    <title>the-guardian</title>
    <g id="Page-1" stroke="none" stroke-width="1" fill="none" fill-rule="evenodd" opacity="0.7">
        <g id="the-guardian" transform="translate(0.000000, -0.000000)" fill="#0D1D31" fill-rule="nonzero">
            <path d="M40.8848207,31.7014483 C41.495042,31.394792 42.1662853,31.0268045 42.7765065,30.7201481 C43.020595,30.5974856 43.8749047,30.2908293 43.9969489,30.0455042 C44.057971,29.9228417 43.9969489,29.5548541 43.9969489,29.3708604 L43.9969489,27.89891 L43.9969489,17.4112641 L43.9969489,7.16894318 L43.9969489,5.81965539 C43.9969489,5.75832413 44.057971,5.32900529 43.9969489,5.26767403 C43.9359268,5.20634276 43.4477498,5.26767403 43.3867277,5.26767403 L42.044241,5.26767403 C41.5560641,5.26767403 41.6170862,5.32900529 41.3119756,5.69699287 C40.1525553,7.23027444 38.993135,8.76355601 37.8337147,10.3581688 C37.2845156,11.094144 36.7353166,11.7687879 36.2471396,12.5047631 C35.8810069,12.9954132 35.8810069,13.0567444 35.2097635,13.0567444 L35.3928299,9.00888107 C35.453852,8.02758086 35.453852,7.04628065 35.5148741,6.06498044 C35.5148741,5.69699287 35.5758963,5.32900529 35.5758963,4.96101771 C35.5758963,4.83835519 35.5148741,4.47036761 35.5758963,4.40903635 C35.6979405,4.22504256 36.7963387,4.34770508 37.1014493,4.34770508 L59.9237223,4.34770508 C60.0457666,4.34770508 60.5949657,4.28637382 60.7170099,4.34770508 C60.8390542,4.40903635 60.778032,4.77702392 60.778032,4.96101771 C60.8390542,5.75832413 60.8390542,6.61696181 60.9000763,7.41426823 C60.9610984,9.19287485 61.0221205,10.9101502 61.1441648,12.6887568 L61.1441648,13.0567444 C60.8390542,13.0567444 60.5949657,13.1180757 60.3508772,12.9340819 C60.1067887,12.7500881 59.9237223,12.3821005 59.740656,12.1367755 C59.0083905,11.1554753 58.2761251,10.1128438 57.4828375,9.13154359 L55.2860412,6.18764297 C55.1639969,6.00364918 54.9809306,5.57433034 54.7368421,5.45166782 C54.5537757,5.32900529 54.187643,5.39033655 53.9435545,5.39033655 L52.9672006,5.39033655 C52.8451564,5.39033655 52.3569794,5.32900529 52.2349352,5.39033655 C52.173913,5.45166782 52.2349352,5.45166782 52.173913,5.57433034 C52.0518688,6.06498044 52.173913,6.67829307 52.173913,7.16894318 L52.173913,28.5122227 C52.173913,28.9415415 52.0518688,29.5548541 52.173913,29.984173 C52.2959573,30.4134918 53.2723112,30.7201481 53.6994661,30.9041419 C54.1266209,31.149467 54.8588863,31.3334608 55.2250191,31.7014483 C55.3470633,31.8241109 55.4691076,32.4374235 55.3470633,32.6214173 C55.2860412,32.6827486 54.9809306,32.6214173 54.9199085,32.6214173 L41.495042,32.6214173 C41.3729977,32.6214173 40.9458429,32.6827486 40.8848207,32.6214173 C40.8237986,32.3760922 40.8848207,31.8854421 40.8848207,31.7014483 Z M63.5240275,30.5974856 L63.5240275,21.6431212 L63.5240275,6.98494939 L63.5240275,4.59303013 C63.5240275,4.22504256 63.6460717,3.67306119 63.5240275,3.30507361 C63.4019832,2.87575477 62.6697178,2.81442351 62.2425629,2.63042972 C61.9984744,2.56909846 61.2051869,2.38510467 61.0831426,2.13977962 L61.0831426,1.64912951 L61.266209,1.64912951 C61.5102975,1.52646699 61.9984744,1.52646699 62.303585,1.46513573 C62.8527841,1.3424732 63.4019832,1.28114194 63.8901602,1.15847941 C65.1106026,0.913154359 66.3920671,0.667829307 67.6125095,0.483835519 C68.344775,0.361172993 69.0770404,0.177179204 69.8093059,0.0545166782 C69.9923722,0.0545166782 70.7246377,-0.0681458477 70.7856598,0.0545166782 C70.8466819,0.115847941 70.7856598,0.361172993 70.7856598,0.422504256 L70.7856598,13.1180757 C73.1045004,10.7874877 77.1319603,9.49953117 80.3661327,10.2968376 C83.1731503,10.9714815 84.0884821,13.6087258 84.0884821,16.3073014 C84.1495042,19.7418521 84.0884821,23.1150715 84.0884821,26.5496223 L84.0884821,29.3095291 C84.0884821,29.6161854 83.9664378,30.3521606 84.0884821,30.6588169 C84.1495042,30.7814794 84.3935927,30.8428107 84.5156369,30.9654732 C84.9427918,31.2107982 85.4309687,31.4561233 85.8581236,31.7014483 C85.9191457,31.7627796 86.1022121,31.8241109 86.1022121,31.8854421 C86.1632342,31.9467734 86.1632342,32.4987548 86.1022121,32.560086 C86.0411899,32.6827486 86.0411899,32.6214173 85.8581236,32.6214173 C85.1868802,32.7440798 84.4546148,32.6214173 83.8443936,32.6214173 L75.0572082,32.6214173 C74.9961861,32.6214173 74.6910755,32.6827486 74.6300534,32.6214173 C74.5690313,32.560086 74.5690313,31.8854421 74.6300534,31.8241109 C74.8131198,31.5787858 75.5453852,31.3334608 75.7894737,31.149467 C75.97254,31.0268045 76.5217391,30.8428107 76.6437834,30.6588169 C76.7658276,30.4748231 76.6437834,29.8001792 76.6437834,29.6161854 L76.6437834,27.1016036 C76.6437834,23.5443904 76.7048055,19.9258459 76.6437834,16.3686326 C76.6437834,15.3260011 76.460717,14.0993759 75.423341,13.5473945 C74.8741419,13.2407382 74.1418764,13.1794069 73.5316552,13.1794069 C73.0434783,13.1794069 72.5553013,13.3020695 72.1281465,13.424732 C71.7620137,13.5473945 71.0907704,13.7927196 70.8466819,14.0993759 C70.6636156,14.3447009 70.7856598,14.7126885 70.7856598,15.0193448 L70.7856598,29.4935229 C70.7856598,29.8001792 70.6636156,30.4134918 70.7856598,30.6588169 C70.8466819,30.7814794 71.0907704,30.9041419 71.2738368,30.9654732 C71.7009916,31.2107982 72.2501907,31.4561233 72.6773455,31.7014483 C72.7383677,31.7627796 72.8604119,31.7627796 72.8604119,31.8241109 C72.921434,31.8854421 72.921434,32.4374235 72.8604119,32.4987548 C72.7993898,32.560086 72.7383677,32.560086 72.6163234,32.560086 C71.9450801,32.6214173 71.2128146,32.560086 70.5415713,32.560086 L61.754386,32.560086 C61.6933638,32.560086 61.3882532,32.6214173 61.3272311,32.560086 C61.266209,32.4987548 61.3272311,31.8854421 61.3882532,31.7627796 C61.5713196,31.5174546 62.2425629,31.2721295 62.4866514,31.149467 C62.9138063,30.9654732 63.2189169,30.7814794 63.5240275,30.5974856 L63.5240275,30.5974856 Z M92.5095347,22.1337713 C92.6315789,24.8323469 93.4858886,27.8375788 95.9267735,29.3095291 C97.208238,30.0455042 98.7948131,30.2908293 100.259344,30.1681668 C102.028986,29.984173 103.493516,29.1255353 105.019069,28.3282289 C105.019069,28.5735539 105.080092,29.0028728 105.019069,29.2481978 C104.897025,29.4935229 104.591915,29.8001792 104.408848,29.984173 C104.16476,30.229498 103.859649,30.5361544 103.554539,30.7814794 C102.517162,31.6401171 101.357742,32.2534297 100.1373,32.6827486 C97.8184592,33.480055 95.1334859,33.4187237 92.7536232,32.8054111 C90.8619375,32.314761 89.1533181,31.394792 87.8718535,29.9228417 C86.590389,28.4508914 85.8581236,26.5496223 85.553013,24.5870218 C84.8817696,20.3551647 85.6750572,15.5099949 89.1533181,12.6887568 C92.2044241,10.2355063 97.0861937,9.74485622 100.686499,11.2168065 C105.080092,12.9954132 105.812357,18.0245767 105.812357,22.1951026 L94.157132,22.1951026 C93.6079329,22.1337713 93.0587338,22.1337713 92.5095347,22.1337713 L92.5095347,22.1337713 Z M92.3874905,21.0911399 C93.6079329,21.0298086 94.8283753,20.9684773 96.1098398,20.8458148 C96.8421053,20.7844835 97.6353928,20.7844835 98.3676583,20.7231523 C98.4897025,20.7231523 98.7948131,20.7231523 98.9168574,20.661821 C99.0999237,20.5391585 98.9778795,19.3125332 98.9778795,19.0672082 C98.9168574,16.8592827 98.8558352,14.1607072 97.5743707,12.259438 C96.6590389,10.9101502 95.2555301,11.1554753 94.4012204,12.3821005 C92.6315789,14.7740198 92.3874905,18.331233 92.3874905,21.0911399 L92.3874905,21.0911399 Z M0,43.4770508 C0,40.0425001 0.671243326,36.4852869 2.56292906,33.6027175 C4.39359268,30.7814794 7.32265446,28.9415415 10.4958047,28.0215726 C14.3401983,26.9176098 18.6117468,27.0402724 22.5781846,27.7762475 C23.4324943,27.9602413 24.286804,28.1442351 25.0800915,28.3895601 C25.2021358,28.4508914 25.7513349,28.5735539 25.812357,28.6962165 L25.812357,28.8802103 C25.9954233,29.6161854 25.8733791,30.5361544 25.8733791,31.2721295 C25.9344012,33.1733987 25.9344012,35.1359991 25.9954233,37.0372682 C25.7513349,37.0372682 25.32418,37.0985995 25.1411137,37.0372682 C25.0190694,36.975937 24.8970252,36.6692806 24.8360031,36.5466181 C24.3478261,35.810643 23.8596491,35.0746678 23.4324943,34.2773614 C22.3951182,32.6214173 21.2967201,30.9654732 20.259344,29.3095291 C19.7101449,28.3895601 18.1845919,28.3895601 17.208238,28.3895601 C16.1098398,28.3895601 15.0114416,28.5735539 14.0961098,29.1255353 C12.0213577,30.4134918 11.0450038,32.9280736 10.4958047,35.1973303 C9.64149504,38.8158748 9.70251716,42.6184131 9.88558352,46.2982889 C10.0686499,49.119527 10.3127384,52.1247589 11.4111365,54.7006719 C12.0823799,56.2952848 13.2418002,57.7059038 15.0114416,58.0738914 C15.5606407,58.1965539 16.1098398,58.1965539 16.720061,58.1352227 C17.0861937,58.0738914 18.3676583,58.0125601 18.5507246,57.6445726 C18.6117468,57.52191 18.5507246,57.2152537 18.5507246,57.0925912 L18.5507246,56.0499597 L18.5507246,49.5488459 L18.5507246,47.0342641 C18.5507246,46.6049452 18.6727689,46.4209514 18.3066362,46.1756264 C17.8794813,45.9303013 17.3913043,45.6849763 16.9641495,45.37832 C16.6590389,45.1943262 16.0488177,45.0103324 15.8657513,44.7650073 C15.7437071,44.6423448 15.682685,43.9677009 15.8047292,43.8450384 C15.8657513,43.7223759 15.8657513,43.7837071 16.0488177,43.7837071 C16.5980168,43.6610446 17.3302822,43.7837071 17.8794813,43.7837071 L27.33791,43.7837071 C27.9481312,43.7837071 28.6193745,43.7223759 29.2295957,43.7837071 L29.4736842,43.7837071 C29.5347063,43.8450384 29.5347063,44.7036761 29.4736842,44.8263386 C29.35164,45.0103324 28.7414188,45.2556575 28.4973303,45.37832 C28.0701754,45.623645 27.5819985,45.8689701 27.1548436,46.1756264 C26.6666667,46.4209514 26.7276888,46.4209514 26.7276888,46.9729328 L26.7276888,56.9699287 C26.7276888,57.0925912 26.7887109,57.3992475 26.7276888,57.52191 C26.6056445,57.8285664 25.32418,58.0125601 24.9580473,58.1352227 C23.9206712,58.441879 22.8222731,58.687204 21.7238749,58.8711978 C19.5881007,59.2391854 17.4523265,59.3618479 15.3165523,59.3005167 C11.8993135,59.1778541 8.29900839,58.441879 5.49199085,56.356616 C3.05110603,54.5780094 1.46453089,51.8794338 0.732265446,48.9355332 C0.183066362,47.2182579 0,45.3169887 0,43.4770508 Z M28.1311976,37.8959059 C28.1311976,37.7732434 28.0701754,37.2825933 28.1311976,37.221262 C28.1922197,37.1599307 28.2532418,37.221262 28.3142639,37.1599307 C28.6803966,36.975937 29.1685736,36.975937 29.5957285,36.9146057 C30.9992372,36.6692806 32.402746,36.4239556 33.8672769,36.1786305 C34.9656751,35.9946368 36.0640732,35.7493117 37.1014493,35.6266492 C37.4065599,35.5653179 37.7726926,35.5653179 38.0778032,35.6879804 C38.3829138,35.7493117 38.2608696,35.6879804 38.3218917,35.9333055 C38.4439359,36.6692806 38.3218917,37.5279183 38.3218917,38.2638935 L38.3218917,51.0821274 C38.3218917,52.615409 37.8947368,55.4366471 39.3592677,56.356616 C40.0915332,56.8472661 41.1289092,56.8472661 41.9832189,56.6632724 C42.6544622,56.5406098 43.9359268,56.0499597 44.1800153,55.3139846 C44.2410374,55.1299908 44.1800153,54.8846657 44.1800153,54.7006719 L44.1800153,53.4127154 L44.1800153,44.8876699 L44.1800153,40.962469 L44.1800153,39.6745125 C44.1800153,39.55185 44.2410374,39.1838624 44.1800153,39.0611999 C43.9969489,38.8772061 43.3867277,38.6932123 43.2036613,38.6318811 C42.8375286,38.5092185 42.532418,38.3252247 42.1662853,38.2025622 C42.044241,38.141231 41.6170862,38.0798997 41.5560641,37.9572372 C41.495042,37.8959059 41.495042,37.3439245 41.5560641,37.2825933 C41.6170862,37.221262 41.6170862,37.2825933 41.6781083,37.221262 C41.9832189,37.0372682 42.532418,37.0985995 42.8375286,37.0372682 C45.3394355,36.6079494 47.9023646,36.055968 50.4652937,35.6879804 C50.7704043,35.6266492 51.0755149,35.6266492 51.3806255,35.6879804 C51.6857361,35.7493117 51.5636918,35.6266492 51.624714,35.9333055 C51.7467582,36.5466181 51.624714,37.4052558 51.624714,38.0798997 L51.624714,55.7433034 C51.624714,55.9272972 51.5636918,56.2339535 51.624714,56.4792786 C51.6857361,56.6632724 51.624714,56.6019411 51.9298246,56.7246036 C52.5400458,56.9699287 53.2112891,57.276585 53.8215103,57.52191 C54.0045767,57.5832413 54.0655988,57.5832413 54.1266209,57.7059038 C54.187643,57.8285664 54.187643,58.2578852 54.1266209,58.2578852 C54.0045767,58.3805477 53.3943555,58.3192165 53.2723112,58.3805477 C51.9298246,58.5645415 50.5873379,58.687204 49.1838291,58.8711978 C47.9633867,58.9938603 46.7429443,59.1778541 45.583524,59.3005167 C45.3394355,59.3618479 45.0953471,59.3618479 44.8512586,59.3005167 C44.7292143,59.3005167 44.3630816,59.3005167 44.3020595,59.2391854 C44.2410374,59.1165229 44.3020595,58.6258728 44.3020595,58.5032102 L44.3020595,57.4605788 C44.3020595,57.276585 44.4241037,56.7859349 44.3020595,56.6019411 C44.1800153,56.4179473 43.9359268,56.6632724 43.7528604,56.7859349 C43.2646834,57.2152537 42.7154844,57.6445726 42.1662853,57.9512289 C40.1525553,59.1778541 37.6506484,59.7298355 35.3318078,59.2391854 C33.6231884,58.8711978 32.1586575,57.8898976 31.4263921,56.2339535 C30.877193,55.0686595 30.7551487,53.780703 30.7551487,52.5540777 L30.7551487,45.2556575 L30.7551487,41.0851316 L30.7551487,39.6745125 C30.7551487,39.55185 30.8161709,39.1838624 30.7551487,39.0611999 C30.6331045,38.8772061 29.9008391,38.6932123 29.7177727,38.5705498 C29.1075515,38.3252247 28.6193745,38.141231 28.1311976,37.8959059 L28.1311976,37.8959059 Z M85.6750572,35.5653179 C85.7971014,35.5653179 86.3463005,35.5653179 86.4073227,35.6879804 C86.4683448,35.7493117 86.4073227,36.1786305 86.4073227,36.2399618 L86.4073227,41.6371129 C86.4073227,41.8211067 86.3463005,42.127763 86.4073227,42.3117568 L86.4073227,42.4344194 C86.6514111,42.6797444 86.7124333,41.882438 86.7734554,41.8211067 C87.3226545,39.55185 88.3600305,36.9146057 90.6788711,35.9946368 C91.1060259,35.810643 91.5331808,35.7493117 91.9603356,35.6879804 C92.3264683,35.6879804 93.3638444,35.5653179 93.5469108,35.8719742 C93.6079329,35.9946368 93.5469108,36.3012931 93.5469108,36.4239556 L93.5469108,42.6797444 C92.0823799,42.3730881 90.4347826,42.4344194 89.0312738,42.7410757 C88.3600305,42.8637382 87.7498093,43.047732 87.1395881,43.3543883 C86.8344775,43.4770508 86.7734554,43.4157196 86.7124333,43.6610446 C86.6514111,43.9063697 86.7124333,44.3356885 86.7124333,44.5810136 L86.7124333,56.4179473 C86.7124333,56.5406098 86.6514111,56.7246036 86.7124333,56.8472661 C86.8344775,57.0312599 87.2616323,57.1539225 87.4446987,57.2152537 C87.7498093,57.3992475 88.115942,57.5832413 88.4210526,57.7672351 C88.5430969,57.8285664 88.7261632,57.8898976 88.7871854,58.0125601 C88.8482075,58.0738914 88.8482075,58.8098666 88.7871854,58.8711978 C88.7261632,58.9325291 88.3600305,58.8711978 88.2379863,58.8711978 L78.1083143,58.8711978 C77.8032037,58.8711978 77.2540046,58.9938603 77.0099161,58.8711978 L76.8268497,58.8711978 C76.7658276,58.8098666 76.8268497,58.1352227 76.8268497,58.0738914 C76.948894,57.7059038 77.7421815,57.4605788 78.1083143,57.276585 C78.3524027,57.1539225 78.8405797,56.9699287 78.962624,56.7246036 C79.0236461,56.6019411 78.962624,56.2339535 78.962624,56.111291 L78.962624,54.8233345 L78.962624,39.0611999 C78.962624,38.9998686 79.0236461,38.6932123 78.962624,38.6318811 C78.9016018,38.5705498 78.5964912,38.5092185 78.474447,38.5092185 C78.1083143,38.386556 77.7421815,38.2638935 77.3760488,38.2025622 C77.0099161,38.0798997 76.0945843,38.0185684 76.3996949,37.4052558 C76.460717,37.221262 76.7048055,37.2825933 76.948894,37.221262 C79.6338673,36.7306119 82.2578185,36.2399618 84.9427918,35.7493117 C85.1868802,35.6266492 85.4309687,35.6266492 85.6750572,35.5653179 L85.6750572,35.5653179 Z M108.680397,36.1172993 L108.680397,31.2107982 L108.680397,29.8001792 C108.680397,29.6161854 108.741419,29.2481978 108.680397,29.064204 C108.619375,28.9415415 108.375286,28.8802103 108.19222,28.818879 C107.704043,28.6348852 107.215866,28.4508914 106.666667,28.2668976 C106.300534,28.1442351 106.117468,28.2055664 106.117468,27.7762475 C106.117468,27.4082599 106.056445,27.5309225 106.361556,27.4695912 C107.032799,27.2242662 107.826087,27.2242662 108.49733,27.1016036 C110.51106,26.7336161 112.463768,26.3656285 114.477498,25.9976409 C114.904653,25.9363096 115.331808,25.8136471 115.758963,25.8749784 C116.24714,25.9363096 116.308162,25.8136471 116.308162,26.2429659 C116.369184,27.2242662 116.308162,28.2668976 116.308162,29.2481978 L116.308162,56.111291 C116.308162,56.356616 116.24714,56.356616 116.430206,56.4792786 C116.796339,56.7246036 117.40656,56.8472661 117.772693,56.9699287 C118.016781,57.0312599 118.688024,57.1539225 118.810069,57.3379162 C118.871091,57.3992475 118.871091,58.0738914 118.810069,58.1352227 C118.749047,58.1965539 118.382914,58.1965539 118.321892,58.1965539 C117.467582,58.3192165 116.674294,58.441879 115.819985,58.5032102 C113.928299,58.7485353 112.036613,58.9938603 110.083905,59.2391854 C109.778795,59.3005167 109.046529,59.4231792 108.924485,59.1778541 C108.802441,58.9325291 108.924485,58.1352227 108.924485,57.8898976 C108.924485,57.7059038 109.046529,56.9085974 108.924485,56.7859349 C108.802441,56.6632724 107.459954,57.8898976 107.276888,58.0125601 C106.544622,58.5032102 105.751335,58.8711978 104.897025,59.1165229 C103.554539,59.4845105 102.028986,59.4845105 100.686499,59.1778541 C94.8283753,57.8285664 93.6079329,50.8368024 94.0961098,45.7463076 C94.3401983,43.047732 95.194508,40.3491564 97.0251716,38.386556 C98.733791,36.6079494 101.052632,35.6879804 103.432494,35.5039866 C105.263158,35.3199929 107.032799,35.4426554 108.680397,36.1172993 L108.680397,36.1172993 Z M108.680397,55.6819722 L108.680397,40.5944815 L108.680397,37.7732434 C108.680397,37.4052558 108.619375,37.3439245 108.19222,37.0985995 C107.33791,36.6079494 106.239512,36.4239556 105.32418,36.7919432 C103.920671,37.3439245 103.249428,38.9998686 102.883295,40.3491564 C102.15103,42.8024069 102.090008,45.4396512 102.15103,48.0155643 C102.212052,50.2234898 102.273074,52.9220653 103.493516,54.8846657 C104.591915,56.6019411 107.093822,57.0312599 108.680397,55.6819722 Z M128.878719,35.5653179 C129.183829,35.6266492 129.549962,35.5039866 129.672006,35.810643 C129.733028,35.9946368 129.672006,36.4239556 129.672006,36.6079494 L129.672006,55.8046347 C129.672006,56.0499597 129.610984,56.4179473 129.672006,56.6632724 C129.733028,56.9085974 129.977117,56.9699287 130.221205,57.0925912 C130.587338,57.276585 130.892449,57.4605788 131.258581,57.6445726 C131.380625,57.7059038 131.746758,57.8285664 131.80778,58.0125601 C131.80778,58.0738914 131.868802,58.8098666 131.80778,58.8711978 L131.624714,58.8711978 C131.258581,58.9325291 130.770404,58.8711978 130.343249,58.8711978 L121.067887,58.8711978 C120.823799,58.8711978 120.152555,58.9938603 119.969489,58.8711978 C119.847445,58.8098666 119.786423,58.0738914 119.908467,57.9512289 C120.030511,57.7672351 120.457666,57.6445726 120.640732,57.5832413 C121.006865,57.3992475 121.372998,57.1539225 121.73913,56.9699287 C122.044241,56.7859349 121.983219,56.8472661 121.983219,56.6019411 C122.105263,55.6819722 121.983219,54.6393407 121.983219,53.7193717 L121.983219,48.874202 L121.983219,40.0425001 C121.983219,39.7971751 122.044241,39.3678562 121.983219,39.1225312 C121.922197,38.8772061 121.617086,38.8772061 121.372998,38.7545436 C120.945843,38.5705498 120.57971,38.4478873 120.152555,38.2638935 C120.030511,38.2025622 119.542334,38.141231 119.42029,37.9572372 C119.359268,37.8959059 119.359268,37.2825933 119.42029,37.221262 C119.481312,37.1599307 119.603356,37.221262 119.664378,37.1599307 C120.152555,36.975937 120.701754,36.975937 121.250953,36.8532744 C122.044241,36.7306119 122.776506,36.5466181 123.569794,36.4239556 C125.095347,36.1786305 126.559878,35.8719742 128.085431,35.6266492 C128.390542,35.6879804 128.63463,35.6266492 128.878719,35.5653179 L128.878719,35.5653179 Z M129.733028,29.8615105 C129.610984,33.5413862 124.668192,35.1359991 122.410374,32.2534297 C121.372998,30.9041419 121.311976,29.064204 122.227307,27.653585 C123.142639,26.2429659 124.912281,25.6296533 126.559878,25.9976409 C128.390542,26.3656285 129.733028,27.9602413 129.733028,29.8615105 L129.733028,29.8615105 Z M156.460717,56.7859349 L156.460717,42.0051005 L156.460717,39.1838624 C156.460717,39.1225312 156.521739,38.8158748 156.460717,38.7545436 C156.399695,38.6318811 156.033562,38.5705498 155.911518,38.5705498 L154.81312,38.2025622 C154.630053,38.141231 154.141876,38.0798997 154.019832,37.8959059 C153.897788,37.7732434 153.95881,37.4665871 153.95881,37.2825933 C153.95881,36.9146057 154.080854,36.975937 154.446987,36.9146057 L158.474447,36.1786305 L162.501907,35.4426554 C162.745995,35.3813241 162.929062,35.3199929 163.17315,35.3199929 C163.295195,35.3199929 163.905416,35.3199929 164.02746,35.3813241 C164.088482,35.4426554 164.02746,35.810643 164.02746,35.9333055 L164.02746,37.0985995 C164.02746,37.2825933 163.905416,37.8345746 164.02746,38.0185684 C164.149504,38.2638935 164.393593,38.0185684 164.576659,37.8345746 C165.125858,37.4052558 165.675057,37.0372682 166.285278,36.7306119 C168.482075,35.5039866 171.106026,34.9520053 173.607933,35.3199929 C175.316552,35.5653179 176.720061,36.4852869 177.330282,38.141231 C177.757437,39.3065249 177.818459,40.5331502 177.818459,41.7597755 L177.818459,55.7433034 C177.818459,55.9886285 177.757437,56.4179473 177.818459,56.6632724 C177.879481,56.9085974 178.062548,56.9699287 178.367658,57.0925912 C178.672769,57.276585 179.038902,57.4605788 179.344012,57.6445726 C179.466056,57.7059038 179.893211,57.8285664 179.954233,58.0125601 C180.015256,58.1352227 180.015256,58.7485353 179.954233,58.8098666 C179.893211,58.9325291 180.015256,58.8098666 179.832189,58.8711978 C179.588101,58.9938603 179.038902,58.8711978 178.733791,58.8711978 L170.007628,58.8711978 C169.641495,58.8711978 168.237986,59.0551916 168.05492,58.8098666 C167.993898,58.7485353 167.993898,58.0738914 168.05492,57.9512289 C168.115942,57.8285664 168.482075,57.7059038 168.604119,57.6445726 C168.970252,57.4605788 169.275362,57.276585 169.641495,57.0925912 C169.763539,57.0312599 170.129672,56.9085974 170.190694,56.7859349 C170.251716,56.6632724 170.190694,56.4179473 170.190694,56.2952848 L170.190694,54.945997 L170.190694,50.6528086 L170.190694,42.3730881 C170.190694,41.3917879 170.251716,40.2878252 169.641495,39.4291875 C169.153318,38.6932123 168.299008,38.5092185 167.444699,38.4478873 C166.773455,38.4478873 166.163234,38.5092185 165.553013,38.6932123 C165.247902,38.8158748 164.332571,39.0611999 164.149504,39.4291875 C164.088482,39.55185 164.149504,39.7971751 164.149504,39.9198376 L164.149504,55.8046347 C164.149504,55.9886285 164.088482,56.4179473 164.149504,56.6019411 C164.210526,56.8472661 164.576659,56.9085974 164.759725,57.0312599 C165.064836,57.2152537 165.430969,57.3992475 165.736079,57.5832413 C165.858124,57.6445726 166.102212,57.7672351 166.163234,57.8285664 C166.224256,57.8898976 166.224256,58.6258728 166.163234,58.687204 C166.163234,58.7485353 166.102212,58.687204 166.04119,58.687204 C165.797101,58.8098666 165.18688,58.687204 164.942792,58.687204 L154.691076,58.687204 C154.385965,58.687204 154.324943,58.7485353 154.263921,58.5645415 C154.202899,58.441879 154.202899,57.8898976 154.263921,57.7672351 C154.324943,57.6445726 154.691076,57.52191 154.81312,57.4605788 C155.423341,57.3992475 155.911518,57.0925912 156.460717,56.7859349 L156.460717,56.7859349 Z M143.524027,45.5009825 C143.524027,43.9063697 143.58505,42.2504256 143.463005,40.5944815 C143.279939,38.8158748 142.791762,36.8532744 140.778032,36.4852869 C140.167811,36.3626243 139.069413,36.1786305 138.642258,36.6692806 C138.215103,37.0985995 137.909992,37.7119121 137.54386,38.2025622 L134.431732,42.4344194 C134.248665,42.6797444 134.065599,43.1703945 133.82151,43.293057 C133.760488,43.3543883 133.150267,43.3543883 133.150267,43.293057 C133.089245,43.2317258 133.150267,42.8024069 133.150267,42.6797444 L133.150267,37.7119121 C133.150267,37.5279183 133.089245,37.221262 133.150267,37.0372682 C133.272311,36.7306119 134.614798,36.5466181 134.919908,36.4239556 C136.628528,35.9946368 138.398169,35.6879804 140.167811,35.5653179 C142.669718,35.3813241 145.476735,35.4426554 147.795576,36.5466181 C149.62624,37.4052558 150.78566,38.9385374 151.09077,40.9011378 C151.273837,41.882438 151.212815,42.9864007 151.212815,43.9677009 L151.212815,56.2339535 C151.212815,56.4179473 151.09077,56.9085974 151.212815,57.0312599 C151.273837,57.0925912 151.578947,57.1539225 151.639969,57.1539225 C152.128146,57.276585 152.555301,57.3992475 153.043478,57.52191 C153.348589,57.5832413 153.409611,57.5832413 153.409611,57.8898976 C153.409611,58.1965539 153.470633,58.1965539 153.1045,58.3192165 C152.677346,58.5032102 152.250191,58.687204 151.823036,58.8098666 C149.565217,59.4845105 146.025934,59.6685042 144.378337,57.5832413 C144.256293,57.3992475 143.89016,56.6019411 143.707094,56.5406098 C143.463005,56.4792786 142.73074,57.4605788 142.486651,57.6445726 C141.510297,58.5032102 140.228833,58.9938603 138.947368,59.1778541 C136.567506,59.4845105 134.004577,58.9938603 132.540046,56.9085974 C131.319603,55.1299908 131.075515,52.370084 131.990847,50.4074835 C133.638444,46.6662765 138.520214,46.2982889 142.059497,45.6849763 C142.486651,45.6849763 142.974828,45.5623138 143.524027,45.5009825 L143.524027,45.5009825 Z M143.524027,55.6819722 L143.524027,46.6049452 C141.693364,46.7276078 139.801678,46.8502703 139.130435,48.874202 C138.642258,50.2234898 138.642258,51.8181026 138.825324,53.2287216 C138.947368,54.2100218 139.191457,55.4366471 140.106789,56.0499597 C141.083143,56.7246036 142.73074,56.6019411 143.524027,55.6819722 L143.524027,55.6819722 Z M66.2700229,45.5009825 C66.2700229,43.9063697 66.331045,42.2504256 66.2090008,40.5944815 C66.0259344,38.8158748 65.5377574,36.8532744 63.5240275,36.4852869 C62.9138063,36.3626243 61.8154081,36.1786305 61.3882532,36.6692806 C60.9610984,37.0985995 60.6559878,37.7119121 60.2898551,38.2025622 L57.1777269,42.4344194 C56.9946606,42.6797444 56.8115942,43.1703945 56.5675057,43.293057 C56.5064836,43.3543883 55.8962624,43.3543883 55.8962624,43.293057 C55.8352403,43.2317258 55.8962624,42.8024069 55.8962624,42.6797444 L55.8962624,37.7732434 C55.8962624,37.5892496 55.8352403,37.2825933 55.8962624,37.0985995 C56.0183066,36.7919432 57.2997712,36.6079494 57.6659039,36.4852869 C59.3745233,36.055968 61.1441648,35.7493117 62.8527841,35.6266492 C65.3546911,35.4426554 68.1617086,35.5039866 70.4805492,36.6079494 C72.3112128,37.4665871 73.4706331,38.9998686 73.7757437,40.962469 C73.9588101,41.9437693 73.8977879,43.047732 73.8977879,44.0290322 L73.8977879,56.2952848 C73.8977879,56.4792786 73.7757437,56.9699287 73.8977879,57.0925912 C73.9588101,57.1539225 74.2639207,57.2152537 74.3249428,57.2152537 C74.8131198,57.3379162 75.2402746,57.4605788 75.7284516,57.5832413 C76.0335622,57.6445726 76.0945843,57.6445726 76.0945843,57.9512289 C76.0945843,58.2578852 76.1556064,58.2578852 75.7894737,58.3805477 C75.3623188,58.5645415 74.935164,58.7485353 74.5080092,58.8711978 C72.2501907,59.5458417 68.7109077,59.7298355 67.0633105,57.6445726 C66.9412662,57.4605788 66.5751335,56.6632724 66.3920671,56.6019411 C66.1479786,56.5406098 65.4157132,57.52191 65.2326468,57.7059038 C64.2562929,58.5645415 62.9748284,59.0551916 61.6933638,59.2391854 C59.3135011,59.5458417 56.7505721,59.0551916 55.2860412,56.9699287 C54.0655988,55.191322 53.8215103,52.4314152 54.7368421,50.4688148 C56.3844394,46.7276078 61.266209,46.3596202 64.7444699,45.7463076 C65.2326468,45.6849763 65.7208238,45.5623138 66.2700229,45.5009825 L66.2700229,45.5009825 Z M66.2700229,55.6819722 L66.2700229,46.6049452 C64.4393593,46.7276078 62.5476735,46.8502703 61.8764302,48.874202 C61.3882532,50.2234898 61.3882532,51.8181026 61.5713196,53.2287216 C61.6933638,54.2100218 61.9374523,55.4366471 62.8527841,56.0499597 C63.8291381,56.7246036 65.4767353,56.6019411 66.2700229,55.6819722 L66.2700229,55.6819722 Z" id="Shape"></path>
        </g>
    </g>
</svg>