<?xml version="1.0" encoding="UTF-8"?>
<svg width="72px" height="72px" viewBox="0 0 72 72" version="1.1" xmlns="http://www.w3.org/2000/svg" xmlns:xlink="http://www.w3.org/1999/xlink">
    <title>icon-speaker</title>
    <g id="Page-1" stroke="none" stroke-width="1" fill="none" fill-rule="evenodd">
        <g id="speaker" fill-rule="nonzero">
            <polygon id="path" fill="#0D1D31" points="72 0 53 0 53 21.5 72 21.5"></polygon>
            <polygon id="path" fill="#0D1D31" points="57.9 26.8 63 21.5 57.9 21.5"></polygon>
            <polygon id="path" fill="#0D1D31" points="19.3 37 14 41.9 14 37"></polygon>
            <polygon id="path" fill="#0D1D31" points="52.7 47 58 42.1 58 47"></polygon>
            <polygon id="path" fill="#FFFFFF" points="66.5 6.1 57.9 8 57.9 4.9 66.5 3.1"></polygon>
            <polygon id="path" fill="#FFFFFF" points="66.5 11 57.9 12.9 57.9 9.8 66.5 8"></polygon>
            <polygon id="path" fill="#FFFFFF" points="66.5 15.9 57.9 17.8 57.9 14.7 66.5 12.9"></polygon>
            <polygon id="path" fill="#DE3423" points="54.8 52 19 52 19 69 54.8 69"></polygon>
            <path d="M36.9,45.7 C44.9634,45.7 51.5,39.1634 51.5,31.1 C51.5,23.0366 44.9634,16.5 36.9,16.5 C28.8366,16.5 22.3,23.0366 22.3,31.1 C22.3,39.1634 28.8366,45.7 36.9,45.7 Z" id="path" fill="#DE3423"></path>
            <polygon id="path" fill="#0D1D31" points="42 5 8 5 8 7 42 7"></polygon>
            <polygon id="path" fill="#0D1D31" points="35.9 9 8 9 8 11 35.9 11"></polygon>
            <polygon id="path" fill="#0D1D31" points="72 35 58 35 58 47 72 47"></polygon>
            <polygon id="path" fill="#0D1D31" points="14 37 0 37 0 54 14 54"></polygon>
            <polygon id="path" fill="#0D1D31" points="14 19 0 19 0 21 14 21"></polygon>
            <polygon id="path" fill="#0D1D31" points="14 23 0 23 0 25 14 25"></polygon>
            <polygon id="path" fill="#0D1D31" points="9 27 0 27 0 29 9 29"></polygon>
            <polygon id="path" fill="#0D1D31" points="72 59 60 59 60 61 72 61"></polygon>
            <polygon id="path" fill="#0D1D31" points="72 55 60 55 60 57 72 57"></polygon>
            <polygon id="path" fill="#0D1D31" points="67 63 60 63 60 65 67 65"></polygon>
            <polygon id="path" fill="#0D1D31" points="14 58 0 58 0 60 14 60"></polygon>
            <polygon id="path" fill="#0D1D31" points="14 62 4 62 4 64 14 64"></polygon>
            <polygon id="path" fill="#FFFFFF" points="11.5 50.8 6 40 3 40 3 42 4.9 42 6 44.3 2.4 50.6 4.1 51.6 7.1 46.4 9.7 51.6"></polygon>
            <polygon id="path" fill="#FFFFFF" points="69 38 61 38 61 40 69 40"></polygon>
            <polygon id="path" fill="#FFFFFF" points="67.6 42 61 42 61 44 67.6 44"></polygon>
        </g>
    </g>
</svg>