<?xml version="1.0" encoding="UTF-8"?>
<svg width="72px" height="72px" viewBox="0 0 72 72" version="1.1" xmlns="http://www.w3.org/2000/svg" xmlns:xlink="http://www.w3.org/1999/xlink">
    <title>icon-conference</title>
    <g id="Page-1" stroke="none" stroke-width="1" fill="none" fill-rule="evenodd">
        <g id="conference" transform="translate(3.000000, 6.000000)" fill-rule="nonzero">
            <polygon id="path" fill="#0D1D31" points="57 45 3 45 3 12 29 12 29 9 0 9 0 48 60 48 60 27 57 30"></polygon>
            <polygon id="path" fill="#0D1D31" points="42 56 18 56 18 60 42 60"></polygon>
            <polygon id="path" fill="#0D1D31" points="40 16 7 16 7 41 40 41"></polygon>
            <polygon id="path" fill="#FFFFFF" points="27 20 11 20 11 22 27 22"></polygon>
            <polygon id="path" fill="#FFFFFF" points="20 24 11 24 11 26 20 26"></polygon>
            <polygon id="path" fill="#FFFFFF" points="36 31 11 31 11 33 36 33"></polygon>
            <polygon id="path" fill="#FFFFFF" points="36 35 11 35 11 37 36 37"></polygon>
            <polygon id="path" fill="#0D1D31" points="34 48 26 48 26 56 34 56"></polygon>
            <polygon id="path" fill="#DE3423" points="66 0 32 0 32 22 66 22"></polygon>
            <polygon id="path" fill="#DE3423" points="56 26.9 56 22 61 22"></polygon>
            <polygon id="path" fill="#FFFFFF" points="61 6 37 6 37 9 61 9"></polygon>
            <polygon id="path" fill="#FFFFFF" points="50.5 12 37 12 37 15 50.5 15"></polygon>
            <polygon id="path" fill="#DE3423" points="54 36 43 36 43 41 54 41"></polygon>
            <path d="M48.5,34 C50.9853,34 53,31.9853 53,29.5 C53,27.0147 50.9853,25 48.5,25 C46.0147,25 44,27.0147 44,29.5 C44,31.9853 46.0147,34 48.5,34 Z" id="path" fill="#DE3423"></path>
        </g>
    </g>
</svg>